<?xml version="1.0" standalone="no"?>
<!DOCTYPE svg PUBLIC "-//W3C//DTD SVG 1.1//EN" "http://www.w3.org/Graphics/SVG/1.1/DTD/svg11.dtd" >
<!--
2013-9-30: Created.
-->
<svg>
<metadata>
Created by iconfont
</metadata>
<defs>

<font id="lee" horiz-adv-x="1024" >
  <font-face
    font-family="lee"
    font-weight="500"
    font-stretch="normal"
    units-per-em="1024"
    ascent="896"
    descent="-128"
  />
    <missing-glyph />

    <glyph glyph-name="x" unicode="x" horiz-adv-x="1001"
d="M281 543q-27 -1 -53 -1h-83q-18 0 -36.5 -6t-32.5 -18.5t-23 -32t-9 -45.5v-76h912v41q0 16 -0.5 30t-0.5 18q0 13 -5 29t-17 29.5t-31.5 22.5t-49.5 9h-133v-97h-438v97zM955 310v-52q0 -23 0.5 -52t0.5 -58t-10.5 -47.5t-26 -30t-33 -16t-31.5 -4.5q-14 -1 -29.5 -0.5
t-29.5 0.5h-32l-45 128h-439l-44 -128h-29h-34q-20 0 -45 1q-25 0 -41 9.5t-25.5 23t-13.5 29.5t-4 30v167h911zM163 247q-12 0 -21 -8.5t-9 -21.5t9 -21.5t21 -8.5q13 0 22 8.5t9 21.5t-9 21.5t-22 8.5zM316 123q-8 -26 -14 -48q-5 -19 -10.5 -37t-7.5 -25t-3 -15t1 -14.5
t9.5 -10.5t21.5 -4h37h67h81h80h64h36q23 0 34 12t2 38q-5 13 -9.5 30.5t-9.5 34.5q-5 19 -11 39h-368zM336 498v228q0 11 2.5 23t10 21.5t20.5 15.5t34 6h188q31 0 51.5 -14.5t20.5 -52.5v-227h-327z" />



    <glyph glyph-name="guangbo" unicode="&#58996;" d="M784.93696 0.135253c-127.279787 146.783573-573.156693 136.649387-580.7104 182.35392L204.22656 515.333547c7.499093 64.576853 365.544107 36.215467 552.748373 209.353387 189.201067 174.967467 261.256533-159.71328 261.256533-388.529493C1018.231467 107.37536 913.281707-147.90784 784.93696 0.135253zM0 277.219413l0 168.66304C0 483.15264 30.327467 513.367467 67.730773 513.367467l68.747947 0 0-303.64672L67.730773 209.720747C30.327467 209.720747 0 239.928747 0 277.219413zM284.09856 87.90912c47.7696-9.526613 83.585707-24.24832 83.585707-24.24832s15.295147-42.069333 56.77056-100.468053c49.875627-70.219093 112.01536-159.675733 41.13408-159.675733-22.756693 0-42.530133-0.41984-61.668693-0.41984-58.518187 0-92.45696 41.837227-148.486827 137.335467-63.638187 108.499627-47.745707 164.109653-47.745707 164.109653S236.332373 97.428907 284.09856 87.90912z"  horiz-adv-x="1024" />


    <glyph glyph-name="view" unicode="&#58997;" d="M975.637783 716.074941 559.962529 716.074941 559.962529 764.037471c0 26.379391-21.583138 47.962529-47.962529 47.962529-26.379391 0-47.962529-21.583138-47.962529-47.962529l0-47.962529L48.362217 716.074941c-26.379391 0-47.962529-21.583138-47.962529-47.962529s21.583138-47.962529 47.962529-47.962529l47.962529 0 0-543.575332c0-26.379391 21.583138-47.962529 47.962529-47.962529l251.803279 0-158.276347-158.276347c-8.79313-8.79313-14.388759-20.783763-14.388759-33.57377 0-26.379391 21.583138-47.962529 47.962529-47.962529 13.589383 0 25.580016 5.595628 33.57377 14.388759L464.037471-39.334895 464.037471-163.238095c0-26.379391 21.583138-47.962529 47.962529-47.962529 26.379391 0 47.962529 21.583138 47.962529 47.962529l0 123.903201 158.276347-158.276347c8.79313-8.79313 20.783763-14.388759 33.57377-14.388759 26.379391 0 47.962529 21.583138 47.962529 47.962529 0 13.589383-5.595628 25.580016-14.388759 33.57377L627.909446 28.612022 879.712724 28.612022c26.379391 0 47.962529 21.583138 47.962529 47.962529L927.675254 620.149883l47.962529 0c26.379391 0 47.962529 21.583138 47.962529 47.962529S1002.017174 716.074941 975.637783 716.074941zM831.750195 124.53708 192.249805 124.53708 192.249805 620.149883l639.50039 0L831.750195 124.53708z"  horiz-adv-x="1024" />


    <glyph glyph-name="cuoduanlian" unicode="&#58881;" d="M699.812001 765.908819C758.794515 824.891332 849.781325 829.917411 902.629065 776.995757 955.476806 724.148016 950.52464 633.161207 891.542127 574.178693L725.829351 408.465917 781.92926 352.366008 947.642036 518.078784C1038.924498 609.287332 1044.837532 751.347973 960.87245 835.313054 876.907368 919.204223 734.92064 913.291189 643.638179 822.082641L477.925403 656.369865 534.099225 600.196042 699.812001 765.908819 699.812001 765.908819 699.812001 765.908819ZM333.499549 16.136115C274.517035-42.846398 183.530226-47.798564 130.682485 5.049177 77.834744 57.896917 82.78691 148.883727 141.769423 207.866241L304.599595 370.770326 248.499686 426.870235 85.595601 264.040063C-5.612947 172.757602-11.525981 30.770874 72.439101-53.194208 156.33027-137.15929 298.39091-131.246256 389.599458-39.963794L552.503543 122.866378 496.329721 179.0402 333.499549 16.136115 333.499549 16.136115 333.499549 16.136115ZM215.386696 465.15713 215.386696 465.15713 34.52177 461.831048C15.082671 461.461484-0.36513 476.909285 0.004435 496.274471 0.373999 515.71357 16.413104 531.678762 35.852203 532.048326L35.852203 532.048326 216.717129 535.448321C236.156228 535.817885 251.530116 520.370084 251.234464 500.930985 250.8649 481.565799 234.825795 465.526695 215.386696 465.15713L215.386696 465.15713 215.386696 465.15713ZM269.564869 591.178666C260.547493 591.03084 251.604029 594.283009 244.877953 601.009085L119.373807 726.587143C105.847742 740.039295 106.29122 762.287085 120.260762 776.256628 134.230305 790.226171 156.478095 790.595735 169.930248 777.143583L295.508306 651.639438C308.960458 638.113373 308.51698 615.865582 294.547438 601.89604 287.599623 594.948225 278.508333 591.326492 269.564869 591.178666L269.564869 591.178666 269.564869 591.178666ZM395.512492 645.282926C376.147306 644.913362 360.699505 660.361163 361.06907 679.800262L364.395151 860.665187C364.764716 880.104287 380.80382 896.143391 400.169007 896.439043 419.608106 896.808607 435.055907 881.360806 434.686342 861.99562L431.286348 681.056782C430.990696 661.691595 414.951591 645.652491 395.512492 645.282926L395.512492 645.282926 395.512492 645.282926ZM624.272993-127.994087C604.907807-128.363652 589.460005-112.91585 589.82957-93.476751L593.155652 87.388174C593.525216 106.827273 609.564321 122.866378 628.929507 123.16203 648.368606 123.531594 663.816407 108.157706 663.446843 88.718607L660.046848-92.220232C659.677283-111.585418 643.712092-127.624522 624.272993-127.994087L624.272993-127.994087 624.272993-127.994087ZM879.198668-18.529046C870.181292-18.676872 861.237828-15.424703 854.511752-8.698627L729.007606 116.879431C715.555454 130.331583 715.925019 152.579373 729.894561 166.548916 743.864104 180.518459 766.111894 180.961936 779.564047 167.509784L905.142105 41.931726C918.594257 28.479574 918.224692 6.231783 904.181237-7.737759 897.233422-14.759487 888.142132-18.307307 879.198668-18.529046L879.198668-18.529046 879.198668-18.529046ZM988.663709 236.396629 807.724871 233.070548C788.359685 232.700983 772.911883 248.148784 773.281448 267.513971 773.651013 286.95307 789.690117 302.992174 809.055303 303.287826L989.994142 306.68782C1009.359328 307.057385 1024.807129 291.609584 1024.437565 272.170485 1024.068 252.805299 1008.102808 236.766194 988.663709 236.396629L988.663709 236.396629 988.663709 236.396629Z"  horiz-adv-x="1025" />


    <glyph glyph-name="qunzu" unicode="&#58989;" d="M784.52186-125.868147H223.844552c0 110.145732 19.186676 186.181818 110.145733 220.291464A1041.765441 1041.765441 0 0 1 611.131159 227.308813c76.036086 64.666204 56.84941 64.666204 37.662734 87.405968a225.976405 225.976405 0 0 0-30.556558 106.592644c-79.589174 22.739764-60.402498 152.072172-41.92644 152.072173s19.186676 7.816794 7.816794 76.036086A201.815406 201.815406 0 0 0 618.237335 835.597502C660.163775 888.893824 781.679389 896 781.679389 896s121.515614-7.816794 163.442054-60.402498a201.815406 201.815406 0 0 0 34.109647-186.181818c-11.369882-71.061763-11.369882-76.036086 7.816793-76.036086s34.109646-129.332408-41.92644-152.072173a225.976405 225.976405 0 0 0-30.556558-106.592644c-19.186676-22.739764-37.662734-22.739764 37.662735-87.405968a938.725885 938.725885 0 0 1 277.140874-135.017349c90.959056-30.556558 110.145732-110.145732 110.145732-220.291464z m599.761277 56.84941h181.918112c0 79.589174-14.92297 142.123525-83.142262 163.442054a687.167245 687.167245 0 0 0-204.657877 98.77585c-56.84941 49.032616-41.92644 49.032616-26.292852 64.666204a181.918112 181.918112 0 0 1 22.739764 79.589174c56.84941 14.92297 45.479528 110.145732 30.556558 110.145733s-14.92297 3.553088-3.553088 56.84941a137.85982 137.85982 0 0 1-26.292852 136.438584c-30.556558 41.92644-121.515614 45.479528-121.515614 45.479528s-90.959056-3.553088-121.515614-45.479528c-7.816794-7.816794-11.369882-19.186676-19.186676-26.292852a79.589174 79.589174 0 0 0 37.662734-56.84941 228.108258 228.108258 0 0 0-14.92297-117.962526c-19.186676-49.032616-26.292852-76.036086 14.92297-113.698821 22.739764-19.186676 7.816794-102.328938 7.816794-102.328938a1618.076336 1618.076336 0 0 1 220.291464-95.222762c113.69882-36.241499 102.328938-197.5517 102.328938-197.5517z m-1198.811936 0H2.842471c0 79.589174 14.92297 142.123525 83.142262 163.442054a687.877863 687.877863 0 0 1 201.104788 98.77585c56.84941 49.032616 41.92644 49.032616 26.292852 64.666204a181.918112 181.918112 0 0 0-22.739764 79.589174c-56.84941 14.92297-45.479528 110.145732-30.556558 110.145733s14.92297 3.553088 3.553088 56.84941a142.123525 142.123525 0 0 0 26.292853 136.438584c30.556558 41.92644 121.515614 45.479528 121.515614 45.479528s90.959056-3.553088 121.515614-45.479528c7.816794-7.816794 11.369882-19.186676 19.186676-26.292852a79.589174 79.589174 0 0 1-37.662734-56.84941 228.108258 228.108258 0 0 1 14.92297-117.962526c19.186676-49.032616 26.292852-76.036086-14.92297-113.698821-22.739764-19.186676-7.816794-102.328938-7.816794-102.328938a1620.208189 1620.208189 0 0 0-219.580847-95.222762c-116.541291-36.241499-105.171409-197.5517-105.171409-197.5517z"  horiz-adv-x="1571" />


    <glyph glyph-name="speak" unicode="&#58998;" d="M836.096 786.432C765.952 856.576 650.752 855.04 578.56 782.848c-35.84-35.84-67.584-117.76-67.584-117.76-8.192-20.992-1.536-51.2 14.336-67.072l122.88-122.88c15.872-15.872 46.08-22.528 67.072-14.336 0 0 82.432 31.744 118.272 67.584 71.68 72.192 73.216 187.904 2.56 258.048zM679.424 7.67999999999995H573.44v347.136l33.792 28.672c17.408 14.336 18.432 39.424 2.048 55.296L486.4 561.152c-15.872 15.872-40.448 14.848-54.784-2.56l-276.48-331.264c-12.288-14.848-34.816-57.856-9.728-99.328v-0.512c-1.024-3.584-9.216-34.304-43.008-40.96-7.168-1.536-13.312-5.632-17.408-11.264-4.096-6.144-5.632-13.312-4.096-20.48 2.56-12.8 13.824-22.016 26.624-22.016 1.536 0 3.584 0 5.632 0.512 41.472 8.704 63.488 35.328 74.752 56.32 39.424-18.432 75.776 4.096 89.6 15.872l228.352 192.512v-289.792H399.36c-18.944 0-33.792-14.848-33.792-33.792 0-18.944 15.36-33.792 33.792-33.792h280.064c18.944 0 33.792 14.848 33.792 33.792s-14.848 33.28-33.792 33.28z"  horiz-adv-x="1024" />


    <glyph glyph-name="star" unicode="&#58906;" d="M918.186667 489.813333c-3.413333 13.653333-17.066667 23.893333-30.72 27.306667l-235.52 34.133333L546.133333 773.12c-6.826667 10.24-20.48 20.48-34.133333 20.48s-27.306667-6.826667-34.133333-20.48l-105.813334-221.866667-235.52-34.133333c-17.066667 0-27.306667-10.24-30.72-27.306667-6.826667-13.653333-3.413333-27.306667 6.826667-37.546666l170.666667-170.666667-40.96-238.933333c-3.413333-13.653333 3.413333-30.72 13.653333-37.546667 10.24-10.24 27.306667-10.24 40.96-3.413333l211.626667 112.64 211.626666-112.64c6.826667-3.413333 10.24-3.413333 17.066667-3.413334s17.066667 3.413333 23.893333 6.826667c10.24 10.24 17.066667 23.893333 13.653334 37.546667l-40.96 238.933333 170.666666 170.666667c17.066667 10.24 20.48 23.893333 13.653334 37.546666z"  horiz-adv-x="1024" />


    <glyph glyph-name="fanhui1" unicode="&#58883;" d="M836.843 579.605c-68.77 68.542-160.195 106.288-257.434 106.288H166.107L278.931 798.718l-33.15 33.15L76.372 662.45l169.41-169.416 33.15 33.15-112.824 112.83h413.301c84.747 0 164.422-32.891 224.342-92.61 59.901-59.7 92.888-139.069 92.888-223.484v-23.414c0-84.418-32.987-163.785-92.888-223.485-59.92-59.724-139.588-92.61-224.342-92.61H109.52v-46.878h469.888c97.239 0 188.664 37.748 257.434 106.283 68.788 68.564 106.673 159.72 106.673 256.69v23.415c0 96.964-37.884 188.126-106.672 256.683z m0 0"  horiz-adv-x="1024" />


    <glyph glyph-name="down-trangle" unicode="&#58896;" d="M530.877 222.173l285.857 285.857c10.929 10.929 10.929 29.334 0 40.837-10.929 10.929-29.334 10.929-40.837 0l-265.725-265.725-264.573 264.573c-10.929 10.929-29.334 10.929-40.837 0-10.929-10.929-10.929-29.334 0-40.837l284.703-284.703c12.077-11.502 29.908-11.502 41.418 0z"  horiz-adv-x="1024" />


    <glyph glyph-name="xiangxia" unicode="&#58880;" d="M493.12300000000005 545.827l-285.85699999999997-285.85700000000014c-10.928999999999995-10.929000000000004-10.928999999999991-29.334000000000003 1.0658141036401503e-14-40.837 10.929000000000004-10.928999999999995 29.334000000000003-10.928999999999991 40.837 1.0658141036401503e-14l265.72499999999997 265.7250000000001 264.573-264.573c10.929000000000004-10.928999999999995 29.334000000000003-10.928999999999991 40.837 1.0658141036401503e-14 10.928999999999995 10.929000000000004 10.928999999999991 29.334000000000003-1.0658141036401503e-14 40.837l-284.70300000000003 284.70299999999986c-12.077000000000002 11.501999999999997-29.908 11.501999999999992-41.41799999999999-1.0658141036401503e-14Z"  horiz-adv-x="1024" />


    <glyph glyph-name="videoMeetting" unicode="&#58922;" d="M847.644444 896H261.688889C164.977778 896 85.333333 816.355556 85.333333 719.644444v-233.244444c0-34.133333 28.444444-56.888889 56.888889-56.888889s56.888889 28.444444 56.888889 56.888889V719.644444c0 34.133333 28.444444 56.888889 56.888889 56.888889h585.955556c34.133333 0 56.888889-28.444444 56.888888-56.888889v-466.488888c0-34.133333-28.444444-56.888889-56.888888-56.888889h-341.333334c-34.133333 0-56.888889-28.444444-56.888889-56.888889 0-34.133333 28.444444-56.888889 56.888889-56.888889h347.022222c96.711111 0 176.355556 79.644444 176.355556 176.355555V719.644444C1024 816.355556 944.355556 896 847.644444 896zM733.866667 19.911111H494.933333h-5.688889c-28.444444 56.888889-73.955556 102.4-130.844444 125.155556 28.444444 28.444444 51.2 62.577778 51.2 108.088889 0 79.644444-68.266667 147.911111-147.911111 147.911111C182.044444 401.066667 113.777778 332.8 113.777778 253.155556c0-45.511111 17.066667-79.644444 51.2-108.088889C68.266667 99.555556 0-2.844444 0-128h529.066667v28.444444h204.8c34.133333 0 56.888889 28.444444 56.888889 56.888889 0 34.133333-28.444444 62.577778-56.888889 62.577778zM455.111111 662.755556v-318.577778l273.066667 159.288889z"  horiz-adv-x="1024" />


    <glyph glyph-name="data" unicode="&#58923;" d="M512 668.444444c-62.577778 0-113.777778 51.2-113.777778 113.777778s51.2 113.777778 113.777778 113.777778 113.777778-51.2 113.777778-113.777778-51.2-113.777778-113.777778-113.777778z m0 170.666667c-34.133333 0-56.888889-22.755556-56.888889-56.888889s22.755556-56.888889 56.888889-56.888889 56.888889 22.755556 56.888889 56.888889-22.755556 56.888889-56.888889 56.888889zM910.222222 42.666667c-62.577778 0-113.777778 51.2-113.777778 113.777777s51.2 113.777778 113.777778 113.777778 113.777778-51.2 113.777778-113.777778-51.2-113.777778-113.777778-113.777777z m0 170.666666c-34.133333 0-56.888889-22.755556-56.888889-56.888889s22.755556-56.888889 56.888889-56.888888 56.888889 22.755556 56.888889 56.888888-22.755556 56.888889-56.888889 56.888889zM113.777778 42.666667c-62.577778 0-113.777778 51.2-113.777778 113.777777s51.2 113.777778 113.777778 113.777778 113.777778-51.2 113.777778-113.777778-51.2-113.777778-113.777778-113.777777z m0 170.666666c-34.133333 0-56.888889-22.755556-56.888889-56.888889s22.755556-56.888889 56.888889-56.888888 56.888889 22.755556 56.888889 56.888888-22.755556 56.888889-56.888889 56.888889zM950.044444 298.666667c-17.066667 0-28.444444 11.377778-28.444444 28.444444v17.066667c0 164.977778-102.4 318.577778-256 381.155555-17.066667 5.688889-22.755556 22.755556-17.066667 39.822223 5.688889 17.066667 22.755556 22.755556 39.822223 17.066666 176.355556-73.955556 290.133333-238.933333 290.133333-432.355555v-11.377778c0-28.444444-11.377778-39.822222-28.444445-39.822222zM512-128c-119.466667 0-233.244444 45.511111-318.577778 125.155556-11.377778 11.377778-11.377778 28.444444 0 39.822222 11.377778 11.377778 28.444444 11.377778 39.822222 0 73.955556-73.955556 176.355556-113.777778 278.755556-113.777778 102.4 0 204.8 39.822222 278.755556 108.088889 11.377778 11.377778 28.444444 11.377778 39.822222 0 11.377778-11.377778 11.377778-28.444444 0-39.822222C745.244444-82.488889 631.466667-128 512-128zM79.644444 292.977778c-17.066667 0-28.444444 11.377778-28.444444 28.444444v17.066667c0 187.733333 113.777778 358.4 290.133333 432.355555 17.066667 5.688889 28.444444 0 39.822223-17.066666 5.688889-17.066667 0-28.444444-17.066667-39.822222-159.288889-62.577778-261.688889-210.488889-261.688889-375.466667v-11.377778c5.688889-17.066667-11.377778-34.133333-22.755556-34.133333z"  horiz-adv-x="1024" />


    <glyph glyph-name="dial" unicode="&#58924;" d="M113.777778 782.222222m-113.777778 0a113.777778 113.777778 0 1 1 227.555556 0 113.777778 113.777778 0 1 1-227.555556 0ZM512 782.222222m-113.777778 0a113.777778 113.777778 0 1 1 227.555556 0 113.777778 113.777778 0 1 1-227.555556 0ZM910.222222 782.222222m-113.777778 0a113.777778 113.777778 0 1 1 227.555556 0 113.777778 113.777778 0 1 1-227.555556 0ZM113.777778 384m-113.777778 0a113.777778 113.777778 0 1 1 227.555556 0 113.777778 113.777778 0 1 1-227.555556 0ZM512 384m-113.777778 0a113.777778 113.777778 0 1 1 227.555556 0 113.777778 113.777778 0 1 1-227.555556 0ZM910.222222 384m-113.777778 0a113.777778 113.777778 0 1 1 227.555556 0 113.777778 113.777778 0 1 1-227.555556 0ZM113.777778-14.222222m-113.777778 0a113.777778 113.777778 0 1 1 227.555556 0 113.777778 113.777778 0 1 1-227.555556 0ZM512-14.222222m-113.777778 0a113.777778 113.777778 0 1 1 227.555556 0 113.777778 113.777778 0 1 1-227.555556 0ZM910.222222-14.222222m-113.777778 0a113.777778 113.777778 0 1 1 227.555556 0 113.777778 113.777778 0 1 1-227.555556 0Z"  horiz-adv-x="1024" />


    <glyph glyph-name="alarm" unicode="&#58925;" d="M967.111111-14.222222h-28.444444v244.622222c0 227.555556-193.422222 409.6-426.666667 409.6s-426.666667-182.044444-426.666667-409.6V-14.222222H56.888889c-34.133333 0-56.888889-22.755556-56.888889-56.888889s22.755556-56.888889 56.888889-56.888889h910.222222c34.133333 0 56.888889 22.755556 56.888889 56.888889s-22.755556 56.888889-56.888889 56.888889zM199.111111 230.4C199.111111 395.377778 341.333333 526.222222 512 526.222222s312.888889-130.844444 312.888889-295.822222V-14.222222h-625.777778v244.622222zM557.511111 486.4l-176.355555-256H512l-85.333333-176.355556 216.177777 256H512zM512 668.444444c34.133333 0 56.888889 22.755556 56.888889 56.888889V839.111111c0 34.133333-22.755556 56.888889-56.888889 56.888889S455.111111 873.244444 455.111111 839.111111v-113.777778c0-34.133333 22.755556-56.888889 56.888889-56.888889zM813.511111 571.733333c17.066667 0 28.444444 5.688889 39.822222 17.066667L932.977778 668.444444c22.755556 22.755556 22.755556 56.888889 0 79.644445s-56.888889 22.755556-79.644445 0L773.688889 668.444444c-22.755556-22.755556-22.755556-56.888889 0-79.644444 11.377778-11.377778 22.755556-17.066667 39.822222-17.066667zM170.666667 588.8c11.377778-11.377778 28.444444-17.066667 39.822222-17.066667s28.444444 5.688889 39.822222 17.066667c22.755556 22.755556 22.755556 56.888889 0 79.644444L170.666667 748.088889c-22.755556 22.755556-56.888889 22.755556-79.644445 0s-22.755556-56.888889 0-79.644445L170.666667 588.8z"  horiz-adv-x="1024" />


    <glyph glyph-name="location" unicode="&#58926;" d="M512 896C278.755556 896 85.333333 702.577778 85.333333 469.333333c0-113.777778 45.511111-221.866667 125.155556-301.511111l284.444444-290.133333s11.377778-5.688889 17.066667-5.688889 17.066667 5.688889 22.755556 11.377778l284.444444 290.133333c79.644444 79.644444 125.155556 187.733333 125.155556 301.511111C938.666667 702.577778 745.244444 896 512 896z m261.688889-688.355556L512-59.733333l-261.688889 267.377777c-68.266667 68.266667-108.088889 164.977778-108.088889 261.688889C142.222222 674.133333 307.2 839.111111 512 839.111111s369.777778-164.977778 369.777778-369.777778c0-96.711111-39.822222-193.422222-108.088889-261.688889zM512 640C432.355556 640 369.777778 577.422222 369.777778 497.777778S432.355556 355.555556 512 355.555556s142.222222 62.577778 142.222222 142.222222S591.644444 640 512 640z m0-227.555556c-45.511111 0-85.333333 39.822222-85.333333 85.333334S466.488889 583.111111 512 583.111111s85.333333-39.822222 85.333333-85.333333S557.511111 412.444444 512 412.444444z"  horiz-adv-x="1024" />


    <glyph glyph-name="video" unicode="&#58927;" d="M318.577778 247.466667h-170.666667c-17.066667 0-28.444444-11.377778-28.444444-28.444445s11.377778-28.444444 28.444444-28.444444h170.666667c17.066667 0 28.444444 11.377778 28.444444 28.444444s-17.066667 28.444444-28.444444 28.444445zM1006.933333 662.755556c-11.377778 5.688889-22.755556 5.688889-28.444444-5.688889l-153.6-119.466667v113.777778c0 68.266667-62.577778 125.155556-142.222222 125.155555H142.222222C62.577778 776.533333 0 719.644444 0 651.377778v-489.244445c0-68.266667 62.577778-125.155556 142.222222-125.155555H682.666667c79.644444 0 142.222222 56.888889 142.222222 125.155555v113.777778l153.6-119.466667c5.688889-5.688889 11.377778-5.688889 17.066667-5.688888 5.688889 0 5.688889 0 11.377777 5.688888 11.377778 5.688889 17.066667 17.066667 17.066667 22.755556v455.111111c0 11.377778-5.688889 22.755556-17.066667 28.444445z m-238.933333-500.622223c0-39.822222-39.822222-68.266667-85.333333-68.266666H142.222222c-45.511111 0-85.333333 28.444444-85.333333 68.266666V651.377778c0 39.822222 39.822222 68.266667 85.333333 68.266666H682.666667c45.511111 0 85.333333-28.444444 85.333333-68.266666v-489.244445z m199.111111 73.955556l-142.222222 113.777778v113.777777l142.222222 113.777778v-341.333333z"  horiz-adv-x="1024" />


    <glyph glyph-name="dispatch" unicode="&#58928;" d="M403.911111 651.377778l153.6 136.533333v-432.355555c0-17.066667 11.377778-28.444444 28.444445-28.444445s28.444444 11.377778 28.444444 28.444445V787.911111l153.6-136.533333c5.688889-5.688889 11.377778-5.688889 17.066667-5.688889 5.688889 0 17.066667 5.688889 22.755555 11.377778 11.377778 11.377778 11.377778 28.444444 0 39.822222L591.644444 896 369.777778 691.2c-11.377778-11.377778-11.377778-28.444444 0-39.822222 5.688889-11.377778 22.755556-11.377778 34.133333 0zM836.266667 486.4c-11.377778 11.377778-28.444444 11.377778-39.822223 0-11.377778-11.377778-11.377778-28.444444 0-39.822222l130.844445-147.911111h-739.555556C113.777778 304.355556 56.888889 366.933333 56.888889 446.577778c0 79.644444 56.888889 142.222222 130.844444 142.222222s136.533333-62.577778 136.533334-142.222222c0-17.066667 11.377778-28.444444 28.444444-28.444445s28.444444 11.377778 28.444445 28.444445c0 108.088889-85.333333 199.111111-193.422223 199.111111S0 554.666667 0 446.577778s85.333333-199.111111 193.422222-199.111111h733.866667L796.444444 88.177778c-11.377778-11.377778-5.688889-28.444444 5.688889-39.822222 5.688889-5.688889 11.377778-5.688889 17.066667-5.688889 5.688889 0 17.066667 5.688889 22.755556 11.377777l187.733333 221.866667-193.422222 210.488889zM352.711111 213.333333c-17.066667 0-28.444444-11.377778-28.444444-28.444444v-284.444445c0-17.066667 11.377778-28.444444 28.444444-28.444444s28.444444 11.377778 28.444445 28.444444v284.444445c0 17.066667-11.377778 28.444444-28.444445 28.444444zM580.266667 213.333333c-17.066667 0-28.444444-11.377778-28.444445-28.444444v-284.444445c0-17.066667 11.377778-28.444444 28.444445-28.444444s28.444444 11.377778 28.444444 28.444444v284.444445c0 17.066667-11.377778 28.444444-28.444444 28.444444z"  horiz-adv-x="1029" />


    <glyph glyph-name="Configuration" unicode="&#58929;" d="M170.666667-99.555556c-17.066667 0-28.444444 11.377778-28.444445 28.444445V839.111111c0 17.066667 11.377778 28.444444 28.444445 28.444445s28.444444-11.377778 28.444444-28.444445v-910.222222c0-17.066667-11.377778-28.444444-28.444444-28.444445zM170.666667-99.555556c-17.066667 0-28.444444 11.377778-28.444445 28.444445v301.511111c0 17.066667 11.377778 28.444444 28.444445 28.444444s28.444444-11.377778 28.444444-28.444444V-71.111111c0-17.066667-11.377778-28.444444-28.444444-28.444445zM227.555556 241.777778H113.777778c-17.066667 0-28.444444 11.377778-28.444445 28.444444s11.377778 28.444444 28.444445 28.444445h113.777778c17.066667 0 28.444444-11.377778 28.444444-28.444445s-11.377778-28.444444-28.444444-28.444444zM455.111111 469.333333H341.333333c-17.066667 0-28.444444 11.377778-28.444444 28.444445s11.377778 28.444444 28.444444 28.444444h113.777778c17.066667 0 28.444444-11.377778 28.444445-28.444444s-11.377778-28.444444-28.444445-28.444445zM398.222222-99.555556c-17.066667 0-28.444444 11.377778-28.444444 28.444445V839.111111c0 17.066667 11.377778 28.444444 28.444444 28.444445s28.444444-11.377778 28.444445-28.444445v-910.222222c0-17.066667-11.377778-28.444444-28.444445-28.444445zM398.222222-99.555556c-17.066667 0-28.444444 11.377778-28.444444 28.444445V457.955556c0 17.066667 11.377778 28.444444 28.444444 28.444444s28.444444-11.377778 28.444445-28.444444V-71.111111c0-17.066667-11.377778-28.444444-28.444445-28.444445zM625.777778-99.555556c-17.066667 0-28.444444 11.377778-28.444445 28.444445V839.111111c0 17.066667 11.377778 28.444444 28.444445 28.444445s28.444444-11.377778 28.444444-28.444445v-910.222222c0-17.066667-11.377778-28.444444-28.444444-28.444445zM625.777778-99.555556c-17.066667 0-28.444444 11.377778-28.444445 28.444445V344.177778c0 17.066667 11.377778 28.444444 28.444445 28.444444s28.444444-11.377778 28.444444-28.444444V-71.111111c0-17.066667-11.377778-28.444444-28.444444-28.444445zM682.666667 355.555556h-113.777778c-17.066667 0-28.444444 11.377778-28.444445 28.444444s11.377778 28.444444 28.444445 28.444444h113.777778c17.066667 0 28.444444-11.377778 28.444444-28.444444s-11.377778-28.444444-28.444444-28.444444zM853.333333-99.555556c-17.066667 0-28.444444 11.377778-28.444444 28.444445V839.111111c0 17.066667 11.377778 28.444444 28.444444 28.444445s28.444444-11.377778 28.444445-28.444445v-910.222222c0-17.066667-11.377778-28.444444-28.444445-28.444445zM853.333333-99.555556c-17.066667 0-28.444444 11.377778-28.444444 28.444445V628.622222c0 17.066667 11.377778 28.444444 28.444444 28.444445s28.444444-11.377778 28.444445-28.444445V-71.111111c0-17.066667-11.377778-28.444444-28.444445-28.444445zM910.222222 640h-113.777778c-17.066667 0-28.444444 11.377778-28.444444 28.444444s11.377778 28.444444 28.444444 28.444445h113.777778c17.066667 0 28.444444-11.377778 28.444445-28.444445s-11.377778-28.444444-28.444445-28.444444zM227.555556 298.666667H113.777778c-17.066667 0-28.444444-11.377778-28.444445-28.444445s11.377778-28.444444 28.444445-28.444444h28.444444V-71.111111c0-17.066667 11.377778-28.444444 28.444445-28.444445s28.444444 11.377778 28.444444 28.444445v301.511111 11.377778H227.555556c17.066667 0 28.444444 11.377778 28.444444 28.444444s-11.377778 28.444444-28.444444 28.444445zM455.111111 526.222222H341.333333c-17.066667 0-28.444444-11.377778-28.444444-28.444444s11.377778-28.444444 28.444444-28.444445h28.444445V-71.111111c0-17.066667 11.377778-28.444444 28.444444-28.444445s28.444444 11.377778 28.444445 28.444445V469.333333H455.111111c17.066667 0 28.444444 11.377778 28.444445 28.444445s-11.377778 28.444444-28.444445 28.444444zM682.666667 412.444444h-113.777778c-17.066667 0-28.444444-11.377778-28.444445-28.444444s11.377778-28.444444 28.444445-28.444444h28.444444V-71.111111c0-17.066667 11.377778-28.444444 28.444445-28.444445s28.444444 11.377778 28.444444 28.444445V344.177778v11.377778h28.444445c17.066667 0 28.444444 11.377778 28.444444 28.444444s-11.377778 28.444444-28.444444 28.444444zM910.222222 696.888889h-113.777778c-17.066667 0-28.444444-11.377778-28.444444-28.444445s11.377778-28.444444 28.444444-28.444444h28.444445V-71.111111c0-17.066667 11.377778-28.444444 28.444444-28.444445s28.444444 11.377778 28.444445 28.444445V628.622222v11.377778h28.444444c17.066667 0 28.444444 11.377778 28.444445 28.444444s-11.377778 28.444444-28.444445 28.444445zM199.111111 298.666667V839.111111c0 17.066667-11.377778 28.444444-28.444444 28.444445s-28.444444-11.377778-28.444445-28.444445v-540.444444h56.888889zM426.666667 526.222222V839.111111c0 17.066667-11.377778 28.444444-28.444445 28.444445s-28.444444-11.377778-28.444444-28.444445v-312.888889h56.888889zM654.222222 412.444444V839.111111c0 17.066667-11.377778 28.444444-28.444444 28.444445s-28.444444-11.377778-28.444445-28.444445v-426.666667h56.888889zM881.777778 696.888889V839.111111c0 17.066667-11.377778 28.444444-28.444445 28.444445s-28.444444-11.377778-28.444444-28.444445v-142.222222h56.888889z"  horiz-adv-x="1024" />


    <glyph glyph-name="location1" unicode="&#58930;" d="M512 896C281.6 896 96 704 96 467.2 96 108.8 512-128 512-128s416 268.8 416 595.2C928 704 742.4 896 512 896z m0-480c-51.2 0-96 44.8-96 96S460.8 608 512 608s96-44.8 96-96S563.2 416 512 416z"  horiz-adv-x="1024" />


    <glyph glyph-name="mobile" unicode="&#58931;" d="M768 896H256c-38.4 0-64-25.6-64-64v-896c0-38.4 25.6-64 64-64h512c38.4 0 64 25.6 64 64V832c0 38.4-25.6 64-64 64zM512-64c-38.4 0-64 25.6-64 64s25.6 64 64 64 64-25.6 64-64-25.6-64-64-64z m256 192H256V832h512v-704z"  horiz-adv-x="1024" />


    <glyph glyph-name="MT" unicode="&#58932;" d="M768 506.88c0 25.6-20.48 35.84-71.68 46.08V686.08c0 20.48-5.12 30.72-5.12 66.56V880.64c0 10.24-10.24 15.36-20.48 15.36s-20.48-5.12-20.48-15.36v-133.12c0-35.84-10.24-46.08-10.24-66.56v-128H399.36V680.96c0 20.48-5.12 30.72-5.12 66.56V880.64c0 10.24-5.12 15.36-15.36 15.36-10.24 0-20.48-5.12-20.48-15.36v-133.12c0-35.84-10.24-46.08-10.24-66.56v-133.12c-76.8 0-92.16-15.36-92.16-40.96v-209.92c0-66.56 87.04-102.4 87.04-168.96 0-51.2-5.12-133.12-5.12-133.12l-10.24-15.36v-46.08l51.2-56.32h35.84l20.48-5.12h153.6l20.48 5.12h35.84l51.2 56.32v46.08l-10.24 15.36s-5.12 87.04-5.12 133.12c0 71.68 87.04 102.4 87.04 168.96V506.88z m-51.2-189.44c0-10.24-10.24-15.36-20.48-15.36H327.68c-10.24 0-20.48 10.24-20.48 15.36V481.28c0 10.24 10.24 15.36 20.48 15.36h368.64c10.24 0 20.48-10.24 20.48-15.36v-163.84z"  horiz-adv-x="1024" />


    <glyph glyph-name="MT1" unicode="&#58933;" d="M736 640V896h-64v-256h-320V896h-64v-256h-64v-768h576V640h-64z m-384-640h-64V512h64v-512z m128 0h-64V512h64v-512z m128 0h-64V512h64v-512z m128 0h-64V512h64v-512z"  horiz-adv-x="1024" />


    <glyph glyph-name="monitor" unicode="&#58934;" d="M768 512V640c0 38.4-25.6 64-64 64H64c-38.4 0-64-25.6-64-64v-512c0-38.4 25.6-64 64-64h640c38.4 0 64 25.6 64 64v128l256-192V704l-256-192z"  horiz-adv-x="1024" />


    <glyph glyph-name="MT2" unicode="&#58935;" d="M768 896H256C185.6 896 128 838.4 128 768v-768c0-70.4 57.6-128 128-128h512c70.4 0 128 57.6 128 128V768c0 70.4-57.6 128-128 128z m-96-864h-320c-19.2 0-32 12.8-32 32s12.8 32 32 32h320c19.2 0 32-12.8 32-32s-12.8-32-32-32zM832 64h-64c-6.4 44.8-44.8 76.8-96 76.8h-320c-44.8 0-83.2-32-96-76.8H192V768h640v-704z"  horiz-adv-x="1024" />


    <glyph glyph-name="erasure" unicode="&#58936;" d="M480 864L38.4 38.4l230.4-134.4h384l345.6 659.2L480 864z m102.4-838.4H300.8l-96 57.6L384 435.2l307.2-179.2-108.8-230.4z"  horiz-adv-x="1024" />


    <glyph glyph-name="MT3" unicode="&#58937;" d="M512 672c51.2 0 96 44.8 96 96V896h-192v-128c0-51.2 44.8-96 96-96zM256-128h512c70.4 0 128 57.6 128 128V768c0 70.4-57.6 128-128 128h-96v-128c0-89.6-70.4-160-160-160S352 678.4 352 768V896H256C185.6 896 128 838.4 128 768v-768c0-70.4 57.6-128 128-128zM192 512h640v-512H192V512z"  horiz-adv-x="1024" />


    <glyph glyph-name="circle" unicode="&#58938;" d="M512-128c-281.6 0-512 230.4-512 512s230.4 512 512 512 512-230.4 512-512-230.4-512-512-512zM512 768C300.8 768 128 595.2 128 384s172.8-384 384-384 384 172.8 384 384-172.8 384-384 384z"  horiz-adv-x="1024" />


    <glyph glyph-name="more" unicode="&#58939;" d="M960 704H64c-38.4 0-64 25.6-64 64s25.6 64 64 64h896c38.4 0 64-25.6 64-64s-25.6-64-64-64zM960 320H64c-38.4 0-64 25.6-64 64s25.6 64 64 64h896c38.4 0 64-25.6 64-64s-25.6-64-64-64zM960-64H64c-38.4 0-64 25.6-64 64s25.6 64 64 64h896c38.4 0 64-25.6 64-64s-25.6-64-64-64z"  horiz-adv-x="1024" />


    <glyph glyph-name="rectangle" unicode="&#58940;" d="M896 768v-768H128V768h768m128 128H0v-1024h1024V896z"  horiz-adv-x="1024" />


    <glyph glyph-name="polygon" unicode="&#58941;" d="M691.2 697.6L876.8 384l-179.2-313.6H332.8L147.2 384l179.2 313.6h364.8m76.8 128H256L0 384l256-441.6h512L1024 384l-256 441.6z"  horiz-adv-x="1024" />


    <glyph glyph-name="fullScreen_20px" unicode="&#58942;" d="M345.6 896H0v-345.6c0-38.4 25.6-64 64-64s64 25.6 64 64v128l179.2-179.2 89.6 89.6L217.6 768h128c38.4 0 64 25.6 64 64s-32 64-64 64zM345.6 0h-128l179.2 179.2-89.6 89.6L128 89.60000000000002v128c0 38.4-25.6 64-64 64s-64-25.6-64-64V-128h345.6c38.4 0 64 25.6 64 64s-32 64-64 64zM960 281.6c-38.4 0-64-25.6-64-64v-128l-179.2 179.2-89.6-89.6 179.2-179.2h-128c-38.4 0-64-25.6-64-64s25.6-64 64-64H1024v345.6c0 32-25.6 64-64 64zM678.4 896c-38.4 0-64-25.6-64-64s25.6-64 64-64h128L627.2 588.8l89.6-89.6L896 678.4v-128c0-38.4 25.6-64 64-64s64 25.6 64 64V896h-345.6z"  horiz-adv-x="1024" />


    <glyph glyph-name="man" unicode="&#58943;" d="M787.2 633.6c-6.4 6.4-12.8 6.4-19.2 6.4H256c-6.4 0-12.8 0-19.2-6.4-25.6-6.4-44.8-32-44.8-57.6v-320c0-38.4 25.6-64 64-64s64 25.6 64 64V448h44.8v-512c0-38.4 25.6-64 64-64s64 25.6 64 64v243.2h64V-64c0-38.4 25.6-64 64-64s64 25.6 64 64V448h44.8v-192c0-38.4 25.6-64 64-64s64 25.6 64 64V576c-25.6 32-44.8 51.2-70.4 57.6zM512 768m-128 0a128 128 0 1 1 256 0 128 128 0 1 1-256 0Z"  horiz-adv-x="1024" />


    <glyph glyph-name="hand" unicode="&#58944;" d="M976.298137 660.670807v-616.944099c0-95.403727-76.322981-171.726708-171.726708-171.726708H499.279503c-44.521739 0-89.043478 19.080745-120.84472 50.881988L47.701863 266.335404s50.881988 50.881988 57.242236 50.881987c6.360248 6.360248 19.080745 12.720497 31.801243 12.720497 6.360248 0 19.080745 0 25.440993-6.360248l184.447205-101.763975V724.273292c0 38.161491 25.440994 63.602484 63.602485 63.602484s63.602484-25.440994 63.602484-63.602484v-298.931677H512V832.397516c0 38.161491 25.440994 63.602484 63.602484 63.602484s63.602484-25.440994 63.602485-63.602484v-400.695653h44.521739V787.875776c0 38.161491 25.440994 63.602484 63.602485 63.602485s63.602484-25.440994 63.602484-63.602485v-362.534161h44.521739V660.670807c0 38.161491 25.440994 63.602484 63.602485 63.602485s57.242236-25.440994 57.242236-63.602485z"  horiz-adv-x="1024" />


    <glyph glyph-name="visible" unicode="&#58945;" d="M512 569.6c108.8 0 192-83.2 192-185.6 0-25.6-6.4-57.6-19.2-83.2l140.8-134.4c83.2 51.2 153.6 128 198.4 217.6-96 185.6-288 313.6-512 313.6-70.4 0-134.4-12.8-192-32l108.8-108.8c25.6 6.4 51.2 12.8 83.2 12.8zM38.4 800l185.6-179.2C128 563.2 51.2 480 0 384c96-185.6 288-313.6 512-313.6 83.2 0 160 19.2 224 44.8l198.4-192 44.8 44.8L89.6 838.4l-51.2-38.4zM512 198.4c-108.8 0-192 83.2-192 185.6 0 38.4 12.8 76.8 38.4 108.8l268.8-256c-38.4-25.6-76.8-38.4-115.2-38.4z"  horiz-adv-x="1024" />


    <glyph glyph-name="frameTool" unicode="&#58946;" d="M1024-38.4l-179.2 179.2 89.6 89.6L576 320l89.6-358.4 89.6 89.6 179.2-179.2zM505.6-128H0V896h1024v-505.6c0-38.4-25.6-64-64-64s-64 25.6-64 64V768H128v-768h377.6c38.4 0 64-25.6 64-64s-32-64-64-64z"  horiz-adv-x="1024" />


    <glyph glyph-name="clear" unicode="&#58947;" d="M512 896C230.4 896 0 665.6 0 384s230.4-512 512-512 512 230.4 512 512-230.4 512-512 512z m0-960c-249.6 0-448 198.4-448 448s198.4 448 448 448 448-198.4 448-448-198.4-448-448-448zM729.6 601.6c-12.8 12.8-32 12.8-44.8 0L512 428.8 345.6 601.6c-12.8 12.8-32 12.8-44.8 0s-12.8-32 0-44.8L467.2 384l-166.4-166.4c-12.8-12.8-12.8-32 0-44.8 6.4-6.4 12.8-6.4 25.6-6.4s19.2 0 25.6 6.4L512 339.20000000000005l166.4-166.4c6.4-6.4 12.8-6.4 25.6-6.4s19.2 0 25.6 6.4c12.8 12.8 12.8 32 0 44.8L556.8 384l166.4 166.4c12.8 12.8 12.8 38.4 6.4 51.2z"  horiz-adv-x="1024" />


    <glyph glyph-name="user" unicode="&#58948;" d="M633.6 371.2c76.8 44.8 134.4 128 134.4 224 0 140.8-115.2 256-256 256s-256-115.2-256-256c0-96 57.6-179.2 134.4-224-179.2-51.2-313.6-217.6-313.6-416 0-19.2 12.8-32 32-32s32 12.8 32 32C147.2 160 307.2 320 512 320s364.8-166.4 364.8-364.8c0-19.2 12.8-32 32-32s32 12.8 32 32c0 198.4-128 358.4-307.2 416zM320 588.8c0 102.4 83.2 192 192 192 102.4 0 192-83.2 192-192s-83.2-192-192-192c-102.4 6.4-192 89.6-192 192z"  horiz-adv-x="1024" />


    <glyph glyph-name="arrowRight" unicode="&#58949;" d="M938.666667 384l-853.333334 512v-1024l853.333334 512"  horiz-adv-x="1024" />


    <glyph glyph-name="arrowDown" unicode="&#58950;" d="M512-42.66666699999996l512 853.333334H0l512-853.333334"  horiz-adv-x="1024" />


    <glyph glyph-name="more1" unicode="&#58951;" d="M512 676.571429c43.885714 0 73.142857 29.257143 73.142857 73.142857s-29.257143 73.142857-73.142857 73.142857-73.142857-29.257143-73.142857-73.142857 29.257143-73.142857 73.142857-73.142857z m0-219.428572c-43.885714 0-73.142857-29.257143-73.142857-73.142857s29.257143-73.142857 73.142857-73.142857 73.142857 29.257143 73.142857 73.142857-29.257143 73.142857-73.142857 73.142857z m0-365.714286c-43.885714 0-73.142857-29.257143-73.142857-73.142857s29.257143-73.142857 73.142857-73.142857 73.142857 29.257143 73.142857 73.142857-29.257143 73.142857-73.142857 73.142857z"  horiz-adv-x="1024" />


    <glyph glyph-name="groupUnfold" unicode="&#58952;" d="M192 448h832l-192-512H0l192 512zM128 505.6L0 128V832h384l64-128h384v-198.4H128z"  horiz-adv-x="1024" />


    <glyph glyph-name="groupfold" unicode="&#58953;" d="M0-32v832h448l64-128h512v-704H0z"  horiz-adv-x="1024" />


    <glyph glyph-name="warning" unicode="&#58954;" d="M512 832C262.4 832 64 633.6 64 384s198.4-448 448-448 448 198.4 448 448-198.4 448-448 448z m32-704c0-19.2-12.8-32-32-32s-32 12.8-32 32V512c0 19.2 12.8 32 32 32s32-12.8 32-32v-384z m0 512c0-19.2-12.8-32-32-32s-32 12.8-32 32V704c0 19.2 12.8 32 32 32s32-12.8 32-32v-64z"  horiz-adv-x="1024" />


    <glyph glyph-name="close" unicode="&#58955;" d="M556.8 384l448 448c12.8 12.8 12.8 32 0 44.8s-32 12.8-44.8 0l-448-448-448 448C51.2 889.6 32 889.6 19.2 876.8S6.4 844.8 19.2 832l448-448-448-448c-12.8-12.8-12.8-32 0-44.8 6.4-6.4 12.8-6.4 25.6-6.4s19.2 0 25.6 6.4l448 448 448-448c6.4-6.4 12.8-6.4 25.6-6.4s19.2 0 25.6 6.4c12.8 12.8 12.8 32 0 44.8L556.8 384z"  horiz-adv-x="1027" />


    <glyph glyph-name="group" unicode="&#58956;" d="M550.4 371.2c76.8 44.8 134.4 128 134.4 224 0 140.8-115.2 256-256 256s-256-115.2-256-256c0-96 57.6-179.2 134.4-224-172.8-57.6-307.2-217.6-307.2-416 0-19.2 12.8-32 32-32s32 12.8 32 32C64 160 230.4 320 435.2 320c204.8 0 364.8-166.4 364.8-364.8 0-19.2 12.8-32 32-32s32 12.8 32 32c0 198.4-134.4 358.4-313.6 416zM243.2 588.8c0 102.4 83.2 192 192 192 102.4 0 192-83.2 192-192s-83.2-192-192-192c-108.8 6.4-192 89.6-192 192zM780.8 403.2c57.6 38.4 102.4 102.4 102.4 179.2 0 115.2-96 211.2-211.2 211.2-19.2 6.4-32-12.8-32-25.6 0-19.2 12.8-32 32-32 83.2 0 147.2-70.4 147.2-147.2s-64-147.2-147.2-147.2c-19.2 0-32-12.8-32-32v-12.8c0-19.2 12.8-32 32-32C832 358.4 960 224 960 64c0-19.2 12.8-32 32-32s32 12.8 32 32c0 153.6-102.4 288-243.2 339.2z"  horiz-adv-x="1024" />


    <glyph glyph-name="delete" unicode="&#58957;" d="M992 768H704V832c0 38.4-25.6 64-64 64H384c-38.4 0-64-25.6-64-64v-64H32c-19.2 0-32-12.8-32-32s12.8-32 32-32H128v-768c0-38.4 25.6-64 64-64h640c38.4 0 64 25.6 64 64V704h96c19.2 0 32 12.8 32 32s-12.8 32-32 32zM384 832h256v-64H384V832z m448-896H192V704h640v-768zM352 486.4c-19.2 0-32-12.8-32-32v-268.8c0-19.2 12.8-32 32-32s32 12.8 32 32V454.4c0 19.2-12.8 32-32 32zM640 185.60000000000002c0-19.2 12.8-32 32-32s32 12.8 32 32V454.4c0 19.2-12.8 32-32 32s-32-12.8-32-32v-268.8z"  horiz-adv-x="1024" />


    <glyph glyph-name="unfold" unicode="&#58958;" d="M953.6 416H172.8l390.4 390.4c12.8 12.8 12.8 38.4 6.4 51.2s-32 12.8-44.8 0L96 428.8V832c0 19.2-12.8 32-32 32S32 851.2 32 832v-896c0-19.2 12.8-32 32-32s32 12.8 32 32V339.2l422.4-422.4c6.4-6.4 12.8-6.4 25.6-6.4s19.2 0 25.6 6.4c12.8 12.8 12.8 32 0 44.8L172.8 352h780.8c19.2 0 32 12.8 32 32s-19.2 32-32 32z"  horiz-adv-x="1024" />


    <glyph glyph-name="edit" unicode="&#58959;" d="M256 128l153.6 19.2 531.2 531.2c25.6 38.4 25.6 96 0 128-19.2 19.2-44.8 32-76.8 25.6-25.6 0-57.6-12.8-70.4-32L268.8 281.6 256 128z m614.4 646.4c12.8 0 19.2 0 25.6-6.4 12.8-12.8 12.8-38.4 0-51.2l-12.8-12.8-51.2 44.8 12.8 12.8c6.4 6.4 19.2 12.8 25.6 12.8z m-537.6-524.8l454.4 448 44.8-44.8-448-448-57.6-6.4v51.2zM928 544c-19.2 0-32-12.8-32-32v-480c0-19.2-12.8-32-32-32h-704c-19.2 0-32 12.8-32 32v704c0 19.2 12.8 32 32 32H640c19.2 0 32 12.8 32 32S659.2 832 640 832H160C108.8 832 64 787.2 64 736v-704c0-51.2 44.8-96 96-96h704c51.2 0 96 44.8 96 96V512c0 19.2-12.8 32-32 32z"  horiz-adv-x="1024" />


    <glyph glyph-name="deleteMsg" unicode="&#58960;" d="M512 896C230.4 896 0 665.6 0 384c0-121.6 44.8-236.8 121.6-332.8L64-83.20000000000005c-6.4-12.8 0-19.2 6.4-32 6.4-6.4 12.8-12.8 25.6-12.8H512c281.6 0 512 230.4 512 512s-230.4 512-512 512z m0-960H140.8l44.8 115.2c6.4 12.8 0 25.6-6.4 32C108.8 166.39999999999998 64 275.20000000000005 64 384c0 249.6 198.4 448 448 448s448-198.4 448-448-198.4-448-448-448zM665.6 537.6c-12.8 12.8-32 12.8-44.8 0L512 428.8 409.6 537.6c-12.8 12.8-32 12.8-44.8 0s-12.8-32 0-44.8L467.2 384 358.4 281.6c-12.8-12.8-12.8-32 0-44.8 6.4-6.4 12.8-6.4 25.6-6.4s19.2 0 25.6 6.4L512 339.20000000000005l102.4-102.4c6.4-6.4 12.8-6.4 25.6-6.4s19.2 0 25.6 6.4c12.8 12.8 12.8 32 0 44.8L556.8 384l102.4 102.4c12.8 12.8 12.8 38.4 6.4 51.2z"  horiz-adv-x="1024" />


    <glyph glyph-name="message" unicode="&#58962;" d="M985.6 128l-128 192V467.2c0 160-108.8 288-256 326.4v19.2C595.2 857.6 556.8 896 512 896S428.8 857.6 428.8 812.8v-12.8c-147.2-38.4-256-172.8-256-326.4V320l-128-192c-19.2-25.6 0-64 32-64h217.6c6.4-121.6 89.6-192 217.6-192s211.2 70.4 224 192h217.6c25.6 0 44.8 38.4 32 64zM512-64c-96 0-147.2 44.8-160 128h313.6c-6.4-83.2-57.6-128-153.6-128z m339.2 192H121.6l102.4 153.6 12.8 19.2V467.2c0 128 83.2 236.8 204.8 268.8l44.8 12.8v64c6.4 6.4 12.8 19.2 25.6 19.2s19.2-12.8 19.2-19.2v-64l44.8-12.8c128-32 211.2-140.8 211.2-268.8V300.8l12.8-19.2 102.4-153.6h-51.2z"  horiz-adv-x="1024" />


    <glyph glyph-name="creatMeeting" unicode="&#58963;" d="M531.080745-58.037267H117.664596c-25.440994 0-50.881988 25.440994-50.881987 57.242236V775.15528c0 31.801242 25.440994 57.242236 50.881987 57.242236h661.465839c25.440994 0 50.881988-25.440994 50.881987-57.242236v-349.813665c0-19.080745 12.720497-31.801242 31.801243-31.801242s31.801242 19.080745 31.801242 38.16149V775.15528c0 63.602484-50.881988 120.84472-114.484472 120.84472H117.664596C54.062112 896 3.180124 845.118012 3.180124 775.15528v-782.31056c0-63.602484 50.881988-120.84472 114.484472-120.84472h413.416149c19.080745 0 31.801242 12.720497 31.801243 31.801242s-12.720497 38.161491-31.801243 38.161491zM957.217391 132.770186h-159.006211V291.776398c0 19.080745-12.720497 31.801242-31.801242 31.801242s-31.801242-12.720497-31.801242-31.801242V132.770186H575.602484c-19.080745 0-31.801242-12.720497-31.801242-31.801242s12.720497-31.801242 31.801242-31.801242h159.006212v-159.006211c0-19.080745 12.720497-31.801242 31.801242-31.801243s31.801242 12.720497 31.801242 31.801243V69.167702H957.217391c19.080745 0 31.801242 12.720497 31.801243 31.801242s-12.720497 31.801242-31.801243 31.801242z"  horiz-adv-x="1024" />


    <glyph glyph-name="location2" unicode="&#58964;" d="M512 896C281.6 896 96 704 96 467.2 96 108.8 512-128 512-128s416 268.8 416 595.2C928 704 742.4 896 512 896z m0-947.2c-96 64-352 256-352 518.4C160 672 320 832 512 832s352-160 352-364.8c0-236.8-262.4-448-352-518.4zM416 512a96 96 0 1 1 192 0 96 96 0 1 1-192 0Z"  horiz-adv-x="1024" />


    <glyph glyph-name="constraint" unicode="&#58965;" d="M787.2 608c0 140.8-115.2 256-256 256s-256-115.2-256-256c0-89.6 44.8-166.4 108.8-211.2C166.4 339.2 12.8 160 12.8-64c0-19.2 12.8-32 32-32s32 12.8 32 32c0 230.4 192 416 441.6 416h6.4c147.2 0 262.4 115.2 262.4 256z m-454.4 0c0 108.8 83.2 192 192 192s192-83.2 192-192c0-102.4-83.2-192-192-192h-6.4c-96 0-185.6 89.6-185.6 192zM806.4 307.2c-12.8 12.8-32 12.8-44.8 0s-12.8-32 0-44.8L896 128H576c-19.2 0-32-12.8-32-32s12.8-32 32-32h320l-134.4-134.4c-12.8-12.8-12.8-32 0-44.8 6.4-12.8 12.8-12.8 25.6-12.8s19.2 0 25.6 6.4l217.6 217.6-224 211.2z"  horiz-adv-x="1030" />


    <glyph glyph-name="talk" unicode="&#58966;" d="M512 224c128 0 230.4 102.4 230.4 224V640C742.4 768 640 864 512 864S281.6 761.6 281.6 640v-192c0-121.6 102.4-224 230.4-224zM345.6 640c0 89.6 70.4 160 166.4 160 89.6 0 166.4-70.4 166.4-160v-192c0-89.6-70.4-160-166.4-160-89.6 0-166.4 70.4-166.4 160V640zM832 512c-19.2 0-32-12.8-32-32v-70.4c0-153.6-128-281.6-288-281.6s-288 128-288 281.6V480c0 19.2-12.8 32-32 32s-32-12.8-32-32v-70.4c0-179.2 140.8-326.4 320-345.6v-128H313.6c-19.2 0-32-12.8-32-32s19.2-32 32-32H704c19.2 0 32 12.8 32 32s-12.8 32-25.6 32H544v128c179.2 12.8 320 166.4 320 345.6V480c0 19.2-12.8 32-32 32z"  horiz-adv-x="1024" />


    <glyph glyph-name="top" unicode="&#58967;" d="M768 288c-6.4 0-19.2 0-25.6 6.4L512 531.2 281.6 294.4c-12.8-12.8-32-12.8-44.8 0s-12.8 32 0 44.8L512 620.8l281.6-281.6c12.8-12.8 12.8-32 0-44.8-6.4-6.4-19.2-6.4-25.6-6.4zM512 832c249.6 0 448-198.4 448-448s-198.4-448-448-448-448 198.4-448 448 198.4 448 448 448m0 64C230.4 896 0 665.6 0 384s230.4-512 512-512 512 230.4 512 512-230.4 512-512 512z"  horiz-adv-x="1024" />


    <glyph glyph-name="duc" unicode="&#58968;" d="M940.8 672H595.2c-12.8 0-25.6 6.4-32 19.2l-64 128C486.4 844.8 460.8 864 428.8 864H128c-70.4 0-128-57.6-128-128v-704c0-70.4 57.6-128 128-128h768c70.4 0 128 57.6 128 128V588.8c0 44.8-38.4 83.2-83.2 83.2z m19.2-640c0-38.4-25.6-64-64-64H128c-38.4 0-64 25.6-64 64v384h896v-384z m-896 448v256c0 38.4 25.6 64 64 64h300.8c6.4 0 19.2-6.4 19.2-12.8l64-128c19.2-32 51.2-51.2 89.6-51.2h345.6c12.8 0 19.2-6.4 19.2-19.2v-108.8H64z"  horiz-adv-x="1024" />


    <glyph glyph-name="video1" unicode="&#58969;" d="M320 230.4H147.2c-19.2 0-32-12.8-32-32s12.8-32 32-32H320c19.2 0 32 12.8 32 32s-19.2 32-32 32zM1004.8 640c-12.8 6.4-25.6 6.4-32-6.4l-147.2-115.2V627.2c0 70.4-64 128-147.2 128H147.2C64 755.2 0 697.6 0 627.2v-486.4c0-70.4 64-128 147.2-128h537.6c76.8 0 147.2 57.6 147.2 128v102.4l147.2-115.2c6.4-6.4 12.8-6.4 19.2-6.4 6.4 0 6.4 0 12.8 6.4 12.8 6.4 19.2 19.2 19.2 25.6V608c-6.4 12.8-12.8 25.6-25.6 32z m-243.2-499.2c0-38.4-38.4-64-83.2-64H147.2c-44.8 0-83.2 32-83.2 64V627.2c0 38.4 38.4 64 83.2 64h537.6c44.8 0 83.2-32 83.2-64V140.8z m198.4 83.2l-134.4 102.4V441.6L960 544v-320z"  horiz-adv-x="1030" />


    <glyph glyph-name="event" unicode="&#58970;" d="M857.6 480L1024 576 512 870.4 0 576l166.4-96L0 384l166.4-96L0 192l512-294.4 512 294.4-166.4 96L1024 384l-166.4 96zM128 576l384 217.6L896 576l-102.4-57.6L512 358.4 230.4 518.4 128 576z m768-384l-384-217.6L128 192l102.4 57.6L512 89.6l281.6 160 102.4-57.6z m-102.4 134.4L512 166.4 230.4 326.4 128 384l102.4 57.6L512 281.6l281.6 160L896 384l-102.4-57.6z"  horiz-adv-x="1024" />


    <glyph glyph-name="Dynamic" unicode="&#58971;" d="M512 896C230.4 896 0 665.6 0 384s230.4-512 512-512 512 230.4 512 512-230.4 512-512 512z m0-960c-249.6 0-448 198.4-448 448s198.4 448 448 448 448-198.4 448-448-198.4-448-448-448zM800 416h-256v320c0 19.2-12.8 32-32 32s-32-12.8-32-32v-384h320c19.2 0 32 12.8 32 32s-12.8 32-32 32z"  horiz-adv-x="1024" />


    <glyph glyph-name="call" unicode="&#58972;" d="M1024-128h-32c-262.4 0-512 102.4-704 288C102.4 352 0 601.6 0 864V896h281.6l108.8-217.6-76.8-115.2c25.6-57.6 128-262.4 377.6-377.6l121.6 76.8 217.6-108.8V-128zM64 832c6.4-236.8 102.4-454.4 268.8-620.8 166.4-166.4 390.4-262.4 627.2-268.8v179.2L812.8 192l-115.2-76.8-12.8 6.4C352 256 249.6 544 243.2 550.4v19.2L320 684.8 243.2 832H64z"  horiz-adv-x="1024" />


    <glyph glyph-name="task" unicode="&#58973;" d="M896 832h-64V864c0 19.2-12.8 32-32 32s-32-12.8-32-32V832H256V864c0 19.2-12.8 32-32 32S192 883.2 192 864V832H128C57.6 832 0 774.4 0 704v-704c0-70.4 57.6-128 128-128h768c70.4 0 128 57.6 128 128V704c0 70.4-57.6 128-128 128z m64-832c0-38.4-25.6-64-64-64H128c-38.4 0-64 25.6-64 64V576h896v-576z m0 640H64V704c0 38.4 25.6 64 64 64h64v-32c0-19.2 12.8-32 32-32s32 12.8 32 32V768h512v-32c0-19.2 12.8-32 32-32s32 12.8 32 32V768h64c38.4 0 64-25.6 64-64v-64zM460.8 51.2l332.8 352c12.8 12.8 12.8 32 0 44.8-12.8 12.8-32 12.8-44.8 0l-281.6-307.2-179.2 192c-12.8 12.8-32 12.8-44.8 0-12.8-12.8-12.8-32 0-44.8l217.6-236.8z"  horiz-adv-x="1024" />


    <glyph glyph-name="taskList" unicode="&#58974;" d="M896 832h-64V864c0 19.2-12.8 32-32 32s-32-12.8-32-32V832H256V864c0 19.2-12.8 32-32 32S192 883.2 192 864V832H128C57.6 832 0 774.4 0 704v-704c0-70.4 57.6-128 128-128h768c70.4 0 128 57.6 128 128V704c0 70.4-57.6 128-128 128z m64-832c0-38.4-25.6-64-64-64H128c-38.4 0-64 25.6-64 64V576h896v-576z m0 640H64V704c0 38.4 25.6 64 64 64h64v-32c0-19.2 12.8-32 32-32s32 12.8 32 32V768h512v-32c0-19.2 12.8-32 32-32s32 12.8 32 32V768h64c38.4 0 64-25.6 64-64v-64zM256 416h64c19.2 0 32 12.8 32 32s-12.8 32-32 32H256c-19.2 0-32-12.8-32-32s12.8-32 32-32zM448 416h320c19.2 0 32 12.8 32 32s-12.8 32-32 32H448c-19.2 0-32-12.8-32-32s12.8-32 32-32zM256 224h64c19.2 0 32 12.8 32 32s-12.8 32-32 32H256c-19.2 0-32-12.8-32-32s12.8-32 32-32zM448 224h320c19.2 0 32 12.8 32 32s-12.8 32-32 32H448c-19.2 0-32-12.8-32-32s12.8-32 32-32zM256 32h64c19.2 0 32 12.8 32 32s-12.8 32-32 32H256c-19.2 0-32-12.8-32-32s12.8-32 32-32zM448 32h320c19.2 0 32 12.8 32 32s-12.8 32-32 32H448c-19.2 0-32-12.8-32-32s12.8-32 32-32z"  horiz-adv-x="1024" />


    <glyph glyph-name="stop" unicode="&#58975;" d="M128 896h768c70.4 0 128-57.6 128-128v-768c0-70.4-57.6-128-128-128H128c-70.4 0-128 57.6-128 128V768C0 838.4 57.6 896 128 896z"  horiz-adv-x="1024" />


    <glyph glyph-name="sound" unicode="&#58976;" d="M620.8 889.6c-6.4 6.4-19.2 6.4-32 0L230.4 640H32c-19.2 0-32-12.8-32-32v-448c0-19.2 12.8-32 32-32h198.4l364.8-249.6c0-6.4 6.4-6.4 12.8-6.4s12.8 0 12.8 6.4c12.8 6.4 19.2 19.2 19.2 25.6V864c0 12.8-6.4 25.6-19.2 25.6zM64 576h140.8v-384H64V576z m512-608l-307.2 211.2V595.2L576 800v-832zM723.2 652.8c-12.8 12.8-32 6.4-44.8-6.4-12.8-12.8-6.4-32 6.4-44.8 70.4-51.2 115.2-128 115.2-217.6 0-83.2-44.8-166.4-115.2-217.6-12.8-12.8-19.2-32-6.4-44.8 6.4-6.4 19.2-12.8 25.6-12.8 6.4 0 12.8 0 19.2 6.4 89.6 64 140.8 160 140.8 268.8s-51.2 204.8-140.8 268.8zM819.2 780.8c-12.8 12.8-32 6.4-44.8-6.4-12.8-12.8-6.4-32 6.4-44.8C896 646.4 960 518.4 960 384s-64-262.4-179.2-339.2c-12.8-12.8-19.2-32-6.4-44.8 6.4-6.4 19.2-12.8 25.6-12.8 6.4 0 12.8 0 19.2 6.4 128 89.6 204.8 236.8 204.8 396.8 0 147.2-76.8 294.4-204.8 390.4z"  horiz-adv-x="1024" />


    <glyph glyph-name="addUser" unicode="&#58977;" d="M768 640c0 140.8-115.2 256-256 256S256 780.8 256 640c0-89.6 44.8-166.4 108.8-211.2C153.6 371.2 0 192 0-32c0-19.2 12.8-32 32-32s32 12.8 32 32C64 198.4 256 384 505.6 384H512c140.8 0 256 115.2 256 256zM320 640c0 108.8 83.2 192 192 192s192-83.2 192-192c0-102.4-83.2-192-192-192h-6.4C403.2 448 320 537.6 320 640zM960 160h-160V320c0 19.2-12.8 32-32 32s-32-12.8-32-32v-160H576c-19.2 0-32-12.8-32-32s12.8-32 32-32h160V-64c0-19.2 12.8-32 32-32s32 12.8 32 32v160H960c19.2 0 32 12.8 32 32s-12.8 32-32 32z"  horiz-adv-x="1024" />


    <glyph glyph-name="fullScreen__16px" unicode="&#58978;" d="M32 537.6c19.2 0 32 12.8 32 32V787.2l288-288 44.8 44.8L108.8 832h217.6c19.2 0 32 12.8 32 32S345.6 896 326.4 896H19.2L0 876.8v-307.2c0-19.2 12.8-32 32-32zM992 896h-294.4c-19.2 0-32-12.8-32-32s12.8-32 32-32h217.6L627.2 544l44.8-44.8L960 787.2v-217.6c0-19.2 12.8-32 32-32s32 12.8 32 32V864c0 19.2-12.8 32-32 32zM992 230.4c-19.2 0-32-12.8-32-32v-217.6l-288 288-44.8-44.8 288-288h-217.6c-19.2 0-32-12.8-32-32s12.8-32 32-32h307.2c6.4 6.4 12.8 6.4 19.2 19.2v307.2c0 19.2-12.8 32-32 32zM352 268.8L64-19.2v217.6c0 19.2-12.8 32-32 32s-32-12.8-32-32v-307.2c6.4-6.4 6.4-12.8 19.2-19.2h307.2c19.2 0 32 12.8 32 32s-12.8 32-32 32H108.8l288 288-44.8 44.8z"  horiz-adv-x="1024" />


    <glyph glyph-name="search" unicode="&#58979;" d="M982.658385-38.956522l-222.608696 222.608696c63.602484 76.322981 101.763975 171.726708 101.763976 279.850932 0 235.329193-190.807453 432.496894-432.496895 432.496894C193.987578 889.639752 3.180124 698.832298 3.180124 457.142857c0-235.329193 190.807453-432.496894 432.496895-432.496894 108.124224 0 203.52795 38.161491 279.850931 101.763975l222.608696-222.608696c6.360248-6.360248 12.720497-6.360248 25.440994-6.360248s19.080745 0 25.440994 6.360248c0 19.080745 0 44.521739-6.360249 57.242236zM66.782609 457.142857C66.782609 660.670807 232.149068 826.037267 435.677019 826.037267c203.52795 0 368.89441-165.36646 368.89441-368.89441 0-203.52795-165.36646-368.89441-368.89441-368.89441C232.149068 94.608696 66.782609 259.975155 66.782609 457.142857z"  horiz-adv-x="1024" />


    <glyph glyph-name="calendar" unicode="&#58980;" d="M864 768c38.4 0 64-25.6 64-64v-704c0-38.4-25.6-64-64-64h-704c-38.4 0-64 25.6-64 64V704c0 38.4 25.6 64 64 64h704m0 64h-704c-70.4 0-128-57.6-128-128v-704c0-70.4 57.6-128 128-128h704c70.4 0 128 57.6 128 128V704c0 70.4-57.6 128-128 128zM320 704c-19.2 0-32 12.8-32 32v128c0 19.2 12.8 32 32 32s32-12.8 32-32v-128c0-19.2-12.8-32-32-32zM704 704c-19.2 0-32 12.8-32 32v128c0 19.2 12.8 32 32 32s32-12.8 32-32v-128c0-19.2-12.8-32-32-32zM960 576H64c-19.2 0-32 12.8-32 32S44.8 640 64 640h896c19.2 0 32-12.8 32-32s-12.8-32-32-32zM352 448h64v-64h-64zM480 448h64v-64h-64zM608 448h64v-64h-64zM736 448h64v-64h-64zM224 320h64v-64h-64zM352 320h64v-64h-64zM480 320h64v-64h-64zM608 320h64v-64h-64zM736 320h64v-64h-64zM224 192h64v-64h-64zM352 192h64v-64h-64zM480 192h64v-64h-64z"  horiz-adv-x="1024" />


    <glyph glyph-name="groupMsg" unicode="&#58981;" d="M512 896C230.4 896 0 665.6 0 384c0-121.6 44.8-236.8 121.6-332.8L64-83.20000000000005c-6.4-12.8 0-19.2 6.4-32 6.4-6.4 12.8-12.8 25.6-12.8H512c281.6 0 512 230.4 512 512s-230.4 512-512 512z m0-960H140.8l44.8 115.2c6.4 12.8 0 25.6-6.4 32C108.8 166.39999999999998 64 275.20000000000005 64 384c0 249.6 198.4 448 448 448s448-198.4 448-448-198.4-448-448-448zM313.6 384m-51.2 0a51.2 51.2 0 1 1 102.4 0 51.2 51.2 0 1 1-102.4 0ZM512 384m-51.2 0a51.2 51.2 0 1 1 102.4 0 51.2 51.2 0 1 1-102.4 0ZM710.4 384m-51.2 0a51.2 51.2 0 1 1 102.4 0 51.2 51.2 0 1 1-102.4 0Z"  horiz-adv-x="1024" />


    <glyph glyph-name="doc_" unicode="&#58982;" d="M936.96 670.72h-343.04c-10.24 0-25.6 5.12-30.72 20.48L501.76 814.08C491.52 844.8 460.8 865.28 424.96 865.28H128C56.32 865.28 0 808.96 0 737.28v-701.44c0-71.68 56.32-128 128-128h768c71.68 0 128 56.32 128 128V588.8c0 46.08-35.84 81.92-87.04 81.92z m35.84-640c0-40.96-35.84-76.8-76.8-76.8h-768c-40.96 0-76.8 35.84-76.8 76.8V424.96h921.6v-394.24zM51.2 476.16V737.28c0 40.96 35.84 76.8 76.8 76.8h296.96c15.36 0 25.6-5.12 30.72-20.48l61.44-128c20.48-25.6 46.08-46.08 76.8-46.08h343.04c20.48 0 35.84-15.36 35.84-30.72v-112.64H51.2z"  horiz-adv-x="1024" />


    <glyph glyph-name="sendVideo" unicode="&#58983;" d="M512 896C230.4 896 0 665.6 0 384s230.4-512 512-512 512 230.4 512 512S793.6 896 512 896z m0-972.8c-256 0-460.8 204.8-460.8 460.8s204.8 460.8 460.8 460.8 460.8-204.8 460.8-460.8-204.8-460.8-460.8-460.8zM384 143.36l378.88 240.64-378.88 240.64v-481.28z m51.2 384l235.52-143.36-235.52-143.36V527.36z"  horiz-adv-x="1024" />


    <glyph glyph-name="msg_" unicode="&#58984;" d="M512 896C230.4 896 0 665.6 0 384c0-122.88 40.96-235.52 122.88-332.8l-56.32-138.24c-5.12-10.24-5.12-20.48 5.12-30.72 5.12-5.12 15.36-10.24 25.6-10.24H512c281.6 0 512 230.4 512 512S793.6 896 512 896z m0-972.8H122.88l46.08 112.64 10.24 30.72-20.48 25.6C92.16 168.96000000000004 51.2 276.48 51.2 384c0 256 204.8 460.8 460.8 460.8s460.8-204.8 460.8-460.8-204.8-460.8-460.8-460.8zM322.56 384m-40.96 0a40.96 40.96 0 1 1 81.92 0 40.96 40.96 0 1 1-81.92 0ZM512 384m-40.96 0a40.96 40.96 0 1 1 81.92 0 40.96 40.96 0 1 1-81.92 0ZM701.44 384m-40.96 0a40.96 40.96 0 1 1 81.92 0 40.96 40.96 0 1 1-81.92 0Z"  horiz-adv-x="1024" />


    <glyph glyph-name="img" unicode="&#58985;" d="M870.4 844.8H153.6C66.56 844.8 0 778.24 0 696.32V76.8c0-87.04 66.56-153.6 153.6-153.6h716.8c87.04 0 153.6 66.56 153.6 148.48V696.32C1024 778.24 957.44 844.8 870.4 844.8zM153.6 793.6h716.8c56.32 0 102.4-46.08 102.4-97.28v-445.44l-276.48 276.48c-5.12 5.12-10.24 5.12-20.48 5.12-5.12 0-15.36-5.12-20.48-10.24l-204.8-209.92s0 5.12-5.12 5.12l-153.6 158.72c5.12 5.12-5.12 10.24-10.24 10.24s-15.36-5.12-20.48-5.12L51.2 266.24V696.32C51.2 747.52 97.28 793.6 153.6 793.6zM51.2 71.68v122.88l230.4 230.4 133.12-138.24 5.12-5.12-296.96-302.08C81.92-10.24 51.2 25.6 51.2 71.68zM870.4-25.6H194.56l481.28 496.64 286.72-286.72s5.12 0 5.12-5.12v-107.52c5.12-51.2-40.96-97.28-97.28-97.28z"  horiz-adv-x="1024" />


    <glyph glyph-name="video_" unicode="&#58986;" d="M312.32 215.04H143.36c-15.36 0-25.6-10.24-25.6-25.6s10.24-25.6 25.6-25.6h174.08c15.36 0 25.6 10.24 25.6 25.6s-15.36 25.6-30.72 25.6zM1013.76 645.12c-10.24 5.12-20.48 5.12-25.6-5.12l-158.72-128V640c0 71.68-61.44 128-138.24 128H138.24C61.44 768 0 711.68 0 640v-512c0-71.68 61.44-128 138.24-128h547.84c76.8 0 138.24 56.32 138.24 128v128l158.72-128c5.12-5.12 10.24-5.12 15.36-5.12h10.24c10.24 5.12 15.36 15.36 15.36 25.6V624.64c0 10.24-5.12 15.36-10.24 20.48zM773.12 128c0-40.96-40.96-76.8-87.04-76.8H138.24c-51.2 0-87.04 35.84-87.04 76.8V640c0 40.96 40.96 76.8 87.04 76.8h547.84c51.2 0 87.04-35.84 87.04-76.8v-512z m199.68 71.68l-148.48 122.88V445.44L972.8 568.32v-368.64z"  horiz-adv-x="1024" />


    <glyph glyph-name="previous" unicode="&#58987;" d="M828.536131 885.779457L215.885555 436.502367V834.725242c0 35.73795-20.421686 61.265058-51.054215 61.265058s-51.054215-30.632529-51.054215-61.265058v-893.448757c0-35.73795 20.421686-61.265058 51.054215-61.265058s51.054215 30.632529 51.054215 61.265058V334.39393800000005l607.545155-454.382511c35.73795-20.421686 81.686744 0 81.686743 40.843372V844.936085c5.105421 40.843372-40.843372 66.370479-76.581322 40.843372z m-20.421686-862.816228L338.41567 385.448153l469.698775 362.484924v-724.969848z"  horiz-adv-x="1024" />


    <glyph glyph-name="emoj" unicode="&#58988;" d="M512 896C230.4 896 0 665.6 0 384s230.4-512 512-512 512 230.4 512 512S793.6 896 512 896z m0-972.8c-256 0-460.8 204.8-460.8 460.8s204.8 460.8 460.8 460.8 460.8-204.8 460.8-460.8-204.8-460.8-460.8-460.8zM778.24 317.44c-15.36 5.12-25.6 0-30.72-15.36-35.84-97.28-128-163.84-230.4-163.84s-194.56 66.56-230.4 158.72c-5.12 15.36-20.48 20.48-30.72 15.36-15.36-5.12-20.48-20.48-15.36-30.72 40.96-117.76 153.6-194.56 281.6-194.56s240.64 81.92 281.6 199.68c-5.12 10.24-15.36 25.6-25.6 30.72zM286.72 517.12m-66.56 0a66.56 66.56 0 1 1 133.12 0 66.56 66.56 0 1 1-133.12 0ZM747.52 517.12m-66.56 0a66.56 66.56 0 1 1 133.12 0 66.56 66.56 0 1 1-133.12 0Z"  horiz-adv-x="1024" />


    <glyph glyph-name="online" unicode="&#58990;" d="M512 896C230.4 896 0 665.6 0 384s230.4-512 512-512 512 230.4 512 512S793.6 896 512 896z m307.2-870.4c-15.36 0-25.6 10.24-25.6 25.6 0 153.6-128 281.6-281.6 281.6s-281.6-128-281.6-281.6c0-15.36-10.24-25.6-25.6-25.6s-25.6 10.24-25.6 25.6c0 148.48 97.28 271.36 230.4 317.44-46.08 30.72-76.8 81.92-76.8 143.36C332.8 609.28 414.72 691.2 512 691.2s179.2-81.92 179.2-179.2c0-61.44-30.72-112.64-76.8-143.36 133.12-46.08 230.4-168.96 230.4-317.44 0-15.36-10.24-25.6-25.6-25.6zM512 512m-128 0a128 128 0 1 1 256 0 128 128 0 1 1-256 0Z"  horiz-adv-x="1024" />


    <glyph glyph-name="sound_" unicode="&#58991;" d="M512 220.16c122.88 0 220.16 102.4 220.16 230.4V640c0 128-97.28 230.4-220.16 230.4S291.84 768 291.84 640v-189.44c0-128 97.28-230.4 220.16-230.4zM343.04 640c0 97.28 76.8 179.2 168.96 179.2 92.16 0 168.96-81.92 168.96-179.2v-189.44c0-97.28-76.8-179.2-168.96-179.2-92.16 0-168.96 81.92-168.96 179.2V640zM819.2 506.88c-15.36 0-25.6-10.24-25.6-25.6v-71.68c0-163.84-128-291.84-281.6-291.84s-281.6 133.12-281.6 291.84V481.28c0 15.36-10.24 25.6-25.6 25.6s-25.6-10.24-25.6-25.6v-71.68c0-179.2 138.24-327.68 307.2-343.04V-76.8H322.56c-15.36 0-25.6-10.24-25.6-25.6s10.24-25.6 25.6-25.6h378.88c15.36 0 25.6 10.24 25.6 25.6s-10.24 25.6-25.6 25.6h-163.84v133.12 10.24c174.08 10.24 307.2 163.84 307.2 343.04V481.28c0 15.36-10.24 25.6-25.6 25.6z"  horiz-adv-x="1024" />


    <glyph glyph-name="next" unicode="&#58992;" d="M860.156518 895.999488c-30.719693 0-51.199488-30.719693-51.199488-61.439386V435.204096L194.563174 885.75959a51.199488 51.199488 0 0 1-81.91918-40.95959v-921.590784c0-40.95959 46.079539-66.559334 81.91918-40.95959l614.393856 450.555494v-399.356006c0-35.839642 20.479795-61.439386 51.199488-61.439386s51.199488 30.719693 51.199488 61.439386V834.560102c0 30.719693-25.599744 61.439386-51.199488 61.439386zM215.04297 20.48824300000001V747.520973l471.035289-363.516365-471.035289-363.516365z"  horiz-adv-x="1024" />


    <glyph glyph-name="packUp" unicode="&#58993;" d="M972.8 732.16c30.72 0 51.2 20.48 51.2 51.2s-20.48 51.2-51.2 51.2H51.2c-30.72 0-51.2-20.48-51.2-51.2s20.48-51.2 51.2-51.2h409.6v-640L102.4 471.04c-20.48 20.48-51.2 20.48-71.68 0-20.48-20.48-20.48-51.2 0-71.68l404.48-430.08c20.48-20.48 46.08-35.84 76.8-35.84s56.32 10.24 76.8 35.84l404.48 430.08c20.48 20.48 20.48 51.2 0 71.68-20.48 20.48-51.2 20.48-71.68 0l-358.4-378.88V732.16h409.6z"  horiz-adv-x="1024" />


    <glyph glyph-name="fullScreen__20px2" unicode="&#58994;" d="M332.8-25.600000000000023H174.08l194.56 194.56c20.48 20.48 20.48 51.2 0 71.68s-51.2 20.48-71.68 0L102.4 46.08000000000004v158.72c0 30.72-20.48 51.2-51.2 51.2s-51.2-20.48-51.2-51.2V-76.79999999999995c0-5.12 0-15.36 5.12-20.48 0-5.12 5.12-5.12 5.12-10.24s5.12-5.12 5.12-10.24 5.12-5.12 10.24-5.12 5.12-5.12 10.24-5.12h296.96c30.72 0 51.2 20.48 51.2 51.2s-20.48 51.2-51.2 51.2zM332.8 896H51.2C46.08 896 35.84 896 30.72 890.88 25.6 890.88 25.6 885.76 20.48 885.76S15.36 880.64 10.24 880.64 10.24 875.52 10.24 870.4 5.12 865.28 5.12 860.16C0 860.16 0 849.92 0 844.8v-281.6c0-30.72 20.48-51.2 51.2-51.2s51.2 20.48 51.2 51.2V721.92l194.56-194.56c20.48-20.48 51.2-20.48 71.68 0s20.48 51.2 0 71.68L174.08 793.6h158.72c30.72 0 51.2 20.48 51.2 51.2s-20.48 51.2-51.2 51.2zM972.8 256c-30.72 0-51.2-20.48-51.2-51.2v-158.72l-194.56 194.56c-20.48 20.48-51.2 20.48-71.68 0s-20.48-51.2 0-71.68l194.56-194.56h-158.72c-30.72 0-51.2-20.48-51.2-51.2s20.48-51.2 51.2-51.2H972.8c30.72 0 51.2 20.48 51.2 51.2v281.6c0 30.72-20.48 51.2-51.2 51.2zM1018.88 865.28c0 5.12-5.12 5.12-5.12 10.24s-5.12 5.12-5.12 10.24-5.12 5.12-10.24 5.12-5.12 5.12-10.24 5.12h-296.96c-30.72 0-51.2-20.48-51.2-51.2s20.48-51.2 51.2-51.2h158.72l-194.56-194.56c-20.48-20.48-20.48-51.2 0-71.68s51.2-20.48 71.68 0L921.6 721.92v-158.72c0-30.72 20.48-51.2 51.2-51.2s51.2 20.48 51.2 51.2V844.8c0 5.12 0 15.36-5.12 20.48z"  horiz-adv-x="1024" />


    <glyph glyph-name="rank" unicode="&#58995;" d="M358.4 880.64c-30.72 0-51.2-20.48-51.2-51.2v-665.6H153.6l184.32-256c25.6-30.72 71.68-15.36 71.68 20.48V829.44c0 25.6-20.48 51.2-51.2 51.2zM870.4 604.1600000000001l-184.32 256c-25.6 30.72-71.68 15.36-71.68-20.48v-901.12c0-30.72 20.48-51.2 51.2-51.2s51.2 20.48 51.2 51.2v665.6h153.6z"  horiz-adv-x="1024" />


    <glyph glyph-name="jingtaishexiangtou" unicode="&#59070;" d="M802.133333-8.53333299999997h-202.666666v55.466666c202.666667 36.266667 356.266667 211.2 356.266666 422.4 0 177.066667-108.8 326.4-262.4 392.533334C640 883.2 582.4 896 520.533333 896s-121.6-12.8-174.933333-36.266667C189.866667 793.6 83.2 642.133333 83.2 467.2c0-209.066667 153.6-384 356.266667-422.4v-55.466667h-202.666667c-38.4 0-40.533333-40.533333-40.533333-40.533333V-128h648.533333v78.933333c-2.133333 21.333333-19.2 40.533333-42.666667 40.533334zM665.6 827.733333c-38.4-34.133333-89.6-57.6-147.2-57.6s-108.8 21.333333-147.2 57.6c44.8 17.066667 93.866667 27.733333 147.2 27.733334s102.4-8.533333 147.2-27.733334zM305.066667 467.2c0 117.333333 96 211.2 215.466666 211.2s215.466667-93.866667 215.466667-211.2S640 256 520.533333 256s-215.466667 93.866667-215.466666 211.2z m328.533333 0c0 61.866667-51.2 110.933333-113.066667 110.933333-21.333333 0-42.666667-6.4-59.733333-17.066666 6.4 2.133333 10.666667 2.133333 17.066667 2.133333 32 0 57.6-25.6 57.6-57.6 0-32-25.6-57.6-57.6-57.6-32 0-57.6 25.6-57.6 57.6 0 6.4 2.133333 10.666667 2.133333 17.066667-10.666667-17.066667-17.066667-36.266667-17.066667-57.6 0-61.866667 51.2-110.933333 113.066667-110.933334 64 2.133333 115.2 51.2 115.2 113.066667z"  horiz-adv-x="1024" />


    <glyph glyph-name="yidongzhongduan" unicode="&#59071;" d="M731.733333 896H292.266667c-42.666667 0-78.933333-36.266667-78.933334-78.933333v-866.133334c0-42.666667 36.266667-78.933333 78.933334-78.933333h439.466666c42.666667 0 78.933333 36.266667 78.933334 78.933333V817.066667c0 42.666667-36.266667 78.933333-78.933334 78.933333zM480 832h106.666667c6.4 0 10.666667-4.266667 10.666666-10.666667s-4.266667-10.666667-10.666666-10.666666h-106.666667c-6.4 0-10.666667 4.266667-10.666667 10.666666s4.266667 10.666667 10.666667 10.666667z m-42.666667 0c6.4 0 10.666667-4.266667 10.666667-10.666667s-4.266667-10.666667-10.666667-10.666666-10.666667 4.266667-10.666666 10.666666 4.266667 10.666667 10.666666 10.666667zM512-85.33333300000004c-23.466667 0-42.666667 19.2-42.666667 42.666666s19.2 42.666667 42.666667 42.666667 42.666667-19.2 42.666667-42.666667-19.2-42.666667-42.666667-42.666666z m256 106.666666H256V768h512v-746.666667z"  horiz-adv-x="1024" />


    <glyph glyph-name="yuhuiren" unicode="&#59072;" d="M307.2 467.2v38.4c0 36.266667 21.333333 66.133333 55.466667 76.8 8.533333 2.133333 19.2 4.266667 27.733333 4.266667h160c46.933333 0 83.2-36.266667 83.2-83.2v-38.4h40.533333v23.466666c0 12.8 0 23.466667 2.133334 36.266667 8.533333 36.266667 40.533333 61.866667 78.933333 64h164.266667c40.533333 0 72.533333-25.6 81.066666-64 2.133333-6.4 2.133333-12.8 2.133334-17.066667V384H315.733333c-42.666667 0-83.2-10.666667-117.333333-34.133333-36.266667-23.466667-61.866667-55.466667-78.933333-96-12.8-32-17.066667-64-12.8-96 0-34.133333 12.8-66.133333 32-93.866667 21.333333-32 51.2-55.466667 85.333333-70.4 25.6-10.666667 53.333333-17.066667 81.066667-17.066667 2.133333 6.4 2.133333 14.933333 4.266666 21.333334 8.533333 34.133333 40.533333 59.733333 76.8 59.733333h74.666667c-76.8 10.666667-117.333333 72.533333-110.933333 134.4 6.4 64 59.733333 110.933333 123.733333 110.933333 66.133333 0 117.333333-51.2 121.6-115.2 4.266667-61.866667-40.533333-121.6-110.933333-130.133333H550.4c2.133333 0 6.4-2.133333 8.533333-2.133333 25.6-25.6 51.2-51.2 76.8-74.666667 2.133333-2.133333 2.133333-4.266667 2.133334-6.4v-76.8h-6.4c-106.666667 0-213.333333-2.133333-317.866667 0-121.6-2.133333-209.066667 53.333333-262.4 155.733333C27.733333 100.26666699999998 19.2 149.33333300000004 21.333333 198.39999999999998c4.266667 70.4 32 130.133333 81.066667 181.333333 42.666667 42.666667 93.866667 70.4 153.6 81.066667 17.066667 4.266667 34.133333 4.266667 51.2 6.4zM676.266667-106.66666699999996v2.133334 85.333333c2.133333 36.266667 32 68.266667 68.266666 72.533333 10.666667 2.133333 21.333333 2.133333 34.133334 2.133334h51.2c-78.933333 10.666667-117.333333 74.666667-110.933334 132.266666 6.4 64 57.6 113.066667 121.6 113.066667 61.866667 0 115.2-46.933333 121.6-108.8 6.4-61.866667-34.133333-125.866667-110.933333-136.533333h59.733333c17.066667 0 32 0 46.933334-8.533334 27.733333-14.933333 42.666667-36.266667 44.8-68.266666 2.133333-27.733333 0-57.6 0-87.466667-108.8 2.133333-217.6 2.133333-326.4 2.133333zM471.466667 629.333333c-68.266667 0-121.6 55.466667-121.6 121.6 0 68.266667 55.466667 121.6 121.6 121.6 68.266667 0 121.6-55.466667 121.6-121.6s-55.466667-121.6-121.6-121.6zM962.133333 753.066667c0-68.266667-55.466667-121.6-121.6-121.6-68.266667 0-121.6 55.466667-121.6 121.6 0 68.266667 55.466667 121.6 121.6 121.6s121.6-55.466667 121.6-121.6z"  horiz-adv-x="1024" />


    <glyph glyph-name="shijianpx" unicode="&#59073;" d="M995.555556-71.111111h-62.577778V221.866667c0 221.866667-187.733333 401.066667-420.977778 401.066666-233.244444 0-420.977778-179.2-420.977778-401.066666V-71.111111H28.444444c-17.066667 0-28.444444-11.377778-28.444444-28.444445s11.377778-28.444444 28.444444-28.444444h967.111112c17.066667 0 28.444444 11.377778 28.444444 28.444444s-11.377778 28.444444-28.444444 28.444445z m-847.644445 2.844444V221.866667c0 190.577778 162.133333 344.177778 364.088889 344.177777S876.088889 412.444444 876.088889 221.866667V-71.111111l-728.177778 2.844444c0-2.844444 0-2.844444 0 0zM557.511111 460.8l-182.044444-270.222222H512l-91.022222-182.044445 227.555555 270.222223H512zM512 719.644444c17.066667 0 28.444444 11.377778 28.444444 28.444445V867.555556c0 17.066667-11.377778 28.444444-28.444444 28.444444s-28.444444-11.377778-28.444444-28.444444v-119.466667c0-17.066667 11.377778-28.444444 28.444444-28.444445zM830.577778 614.4c8.533333 0 14.222222 2.844444 19.911111 8.533333l85.333333 85.333334c11.377778 11.377778 11.377778 28.444444 0 39.822222s-28.444444 11.377778-39.822222 0l-85.333333-85.333333c-11.377778-11.377778-11.377778-28.444444 0-39.822223 5.688889-5.688889 14.222222-8.533333 19.911111-8.533333zM170.666667 622.933333c5.688889-5.688889 14.222222-8.533333 19.911111-8.533333s14.222222 2.844444 19.911111 8.533333c11.377778 11.377778 11.377778 28.444444 0 39.822223l-85.333333 85.333333c-11.377778 11.377778-28.444444 11.377778-39.822223 0s-11.377778-28.444444 0-39.822222l85.333334-85.333334z"  horiz-adv-x="1024" />


    <glyph glyph-name="xinxipx" unicode="&#59074;" d="M512 896C230.4 896 0 665.6 0 384c0-121.6 44.8-236.8 121.6-332.8L64-83.20000000000005c-6.4-12.8 0-19.2 6.4-32 6.4-6.4 12.8-12.8 25.6-12.8H512c281.6 0 512 230.4 512 512s-230.4 512-512 512z m0-960H140.8l44.8 115.2c6.4 12.8 0 25.6-6.4 32C108.8 166.39999999999998 64 275.20000000000005 64 384c0 249.6 198.4 448 448 448s448-198.4 448-448-198.4-448-448-448zM313.6 384m-51.2 0a51.2 51.2 0 1 1 102.4 0 51.2 51.2 0 1 1-102.4 0ZM512 384m-51.2 0a51.2 51.2 0 1 1 102.4 0 51.2 51.2 0 1 1-102.4 0ZM710.4 384m-51.2 0a51.2 51.2 0 1 1 102.4 0 51.2 51.2 0 1 1-102.4 0Z"  horiz-adv-x="1024" />


    <glyph glyph-name="caozuorizhipx" unicode="&#59075;" d="M938.666667 839.111111h-170.666667V867.555556c0 17.066667-11.377778 28.444444-28.444444 28.444444H284.444444c-17.066667 0-28.444444-11.377778-28.444444-28.444444v-28.444445H85.333333c-17.066667 0-28.444444-11.377778-28.444444-28.444444v-910.222223c0-17.066667 11.377778-28.444444 28.444444-28.444444h853.333334c17.066667 0 28.444444 11.377778 28.444444 28.444444V810.666667c0 17.066667-11.377778 28.444444-28.444444 28.444444zM312.888889 839.111111h398.222222v-56.888889H312.888889V839.111111z m597.333333-910.222222H113.777778V782.222222h142.222222v-28.444444c0-17.066667 11.377778-28.444444 28.444444-28.444445h455.111112c17.066667 0 28.444444 11.377778 28.444444 28.444445V782.222222h142.222222v-853.333333zM384 583.111111c-17.066667 0-28.444444-11.377778-28.444444-28.444444s11.377778-28.444444 28.444444-28.444445h369.777778c17.066667 0 28.444444 11.377778 28.444444 28.444445s-11.377778 28.444444-28.444444 28.444444h-369.777778zM753.777778 440.888889h-483.555556c-17.066667 0-28.444444-11.377778-28.444444-28.444445s11.377778-28.444444 28.444444-28.444444h483.555556c17.066667 0 28.444444 11.377778 28.444444 28.444444s-11.377778 28.444444-28.444444 28.444445zM611.555556 156.444444h-341.333334c-17.066667 0-28.444444-11.377778-28.444444-28.444444s11.377778-28.444444 28.444444-28.444444h341.333334c17.066667 0 28.444444 11.377778 28.444444 28.444444s-11.377778 28.444444-28.444444 28.444444zM753.777778 298.666667h-483.555556c-17.066667 0-28.444444-11.377778-28.444444-28.444445s11.377778-28.444444 28.444444-28.444444h483.555556c17.066667 0 28.444444 11.377778 28.444444 28.444444s-11.377778 28.444444-28.444444 28.444445z"  horiz-adv-x="1024" />


    <glyph glyph-name="paichuanpx" unicode="&#59076;" d="M876.088889 736.711111h-105.244445l-36.977777 71.111111c-11.377778 19.911111-31.288889 34.133333-54.044445 34.133334H347.022222c-25.6 0-48.355556-17.066667-56.888889-39.822223l-25.6-65.422222H147.911111C68.266667 736.711111 0 668.444444 0 585.955556v-531.911112c0-82.488889 68.266667-147.911111 147.911111-147.911111h568.888889c17.066667 0 28.444444 11.377778 28.444444 28.444445s-11.377778 28.444444-28.444444 28.444444h-568.888889c-51.2 0-91.022222 42.666667-91.022222 91.022222V585.955556c0 51.2 42.666667 91.022222 91.022222 91.022222h153.6L344.177778 782.222222l2.844444 2.844445H682.666667s2.844444 0 2.844444-2.844445l51.2-105.244444h139.377778c51.2 0 91.022222-42.666667 91.022222-91.022222V327.111111c0-17.066667 11.377778-28.444444 28.444445-28.444444s28.444444 11.377778 28.444444 28.444444v258.844445c0 82.488889-68.266667 150.755556-147.911111 150.755555zM512 546.133333c-125.155556 0-227.555556-102.4-227.555556-227.555555s102.4-227.555556 227.555556-227.555556 227.555556 102.4 227.555556 227.555556-102.4 227.555556-227.555556 227.555555z m0-398.222222c-93.866667 0-170.666667 76.8-170.666667 170.666667s76.8 170.666667 170.666667 170.666666 170.666667-76.8 170.666667-170.666666-76.8-170.666667-170.666667-170.666667zM867.555556 568.888889m-42.666667 0a42.666667 42.666667 0 1 1 85.333333 0 42.666667 42.666667 0 1 1-85.333333 0ZM975.644444-2.844444l-8.533333-8.533334v216.177778c0 17.066667-11.377778 28.444444-28.444444 28.444444s-28.444444-11.377778-28.444445-28.444444v-258.844444c0-17.066667 8.533333-31.288889 25.6-36.977778 5.688889-2.844444 11.377778-2.844444 14.222222-2.844445 11.377778 0 19.911111 2.844444 28.444445 11.377778l36.977778 36.977778c11.377778 11.377778 11.377778 28.444444 0 39.822222s-28.444444 14.222222-39.822223 2.844445zM827.733333 230.4c-14.222222 5.688889-31.288889 2.844444-42.666666-8.533333L748.088889 184.888889c-11.377778-11.377778-11.377778-28.444444 0-39.822222s28.444444-11.377778 39.822222 0l8.533333 8.533333v-216.177778c0-17.066667 11.377778-28.444444 28.444445-28.444444s28.444444 11.377778 28.444444 28.444444v258.844445c0 14.222222-8.533333 28.444444-25.6 34.133333z"  horiz-adv-x="1024" />


    <glyph glyph-name="renwupx" unicode="&#59077;" d="M896 833.422222h-73.955556V864.711111c0 17.066667-11.377778 28.444444-28.444444 28.444445s-28.444444-11.377778-28.444444-28.444445v-31.288889h-483.555556V864.711111c0 17.066667-11.377778 28.444444-28.444444 28.444445s-28.444444-11.377778-28.444445-28.444445v-31.288889H128C56.888889 833.422222 0 776.533333 0 705.422222v-705.422222C0-71.111111 56.888889-128 128-128h768c71.111111 0 128 56.888889 128 128V705.422222c0 71.111111-56.888889 128-128 128z m-768-56.888889h96.711111v-39.822222c0-17.066667 11.377778-28.444444 28.444445-28.444444s28.444444 11.377778 28.444444 28.444444V776.533333h483.555556v-39.822222c0-17.066667 11.377778-28.444444 28.444444-28.444444s28.444444 11.377778 28.444444 28.444444V776.533333h73.955556c39.822222 0 71.111111-31.288889 71.111111-71.111111v-68.266666H56.888889V705.422222c0 39.822222 31.288889 71.111111 71.111111 71.111111z m768-844.8h-768c-39.822222 0-71.111111 31.288889-71.111111 71.111111V580.266667h910.222222v-580.266667c0-36.977778-31.288889-68.266667-71.111111-68.266667zM748.088889 446.577778L460.8 139.377778l-184.888889 196.266666c-11.377778 11.377778-28.444444 11.377778-39.822222 0-11.377778-11.377778-11.377778-28.444444 0-39.822222l224.711111-241.777778 327.111111 352.711112c11.377778 11.377778 11.377778 28.444444 0 39.822222-11.377778 11.377778-28.444444 11.377778-39.822222 0z"  horiz-adv-x="1024" />


    <glyph glyph-name="tonghuajilupx" unicode="&#59078;" d="M588.8 167.822222c-14.222222 0-25.6-2.844444-36.977778-11.377778-8.533333-5.688889-31.288889-28.444444-45.511111-45.511111-2.844444-2.844444-8.533333-2.844444-8.533333-2.844444s-54.044444 2.844444-147.911111 99.555555C253.155556 301.511111 250.311111 355.555556 250.311111 355.555556c0 2.844444 2.844444 8.533333 2.844445 8.533333l45.511111 45.511111C332.8 452.266667 278.755556 526.222222 256 554.666667c-25.6 28.444444-45.511111 48.355556-85.333333 56.888889-56.888889 8.533333-150.755556-56.888889-156.444445-122.311112-2.844444-22.755556-14.222222-182.044444 204.8-401.066666l8.533334-8.533334c184.888889-184.888889 327.111111-204.8 378.311111-204.8 14.222222 0 22.755556 2.844444 22.755555 2.844445s34.133333 5.688889 51.2 19.911111c5.688889 5.688889 39.822222 34.133333 62.577778 71.111111 36.977778 59.733333-31.288889 133.688889-45.511111 145.066667-36.977778 34.133333-73.955556 54.044444-108.088889 54.044444z m105.244444-173.511111c-17.066667-31.288889-48.355556-56.888889-51.2-56.888889-2.844444-2.844444-14.222222-5.688889-22.755555-5.688889h-14.222222c-45.511111 0-167.822222 17.066667-338.488889 190.577778l-8.533334 5.688889c-210.488889 210.488889-187.733333 352.711111-187.733333 352.711111v5.688889c0 25.6 51.2 68.266667 82.488889 68.266667h2.844444c19.911111-2.844444 31.288889-11.377778 54.044445-36.977778 28.444444-36.977778 39.822222-65.422222 39.822222-73.955556l-39.822222-39.822222c-11.377778-11.377778-19.911111-31.288889-19.911111-48.355555 0-8.533333 2.844444-73.955556 116.622222-190.577778 110.933333-110.933333 176.355556-116.622222 190.577778-116.622222 17.066667 0 36.977778 8.533333 48.355555 22.755555 14.222222 17.066667 34.133333 34.133333 36.977778 36.977778h2.844445c14.222222 0 39.822222-11.377778 68.266666-39.822222 28.444444-22.755556 48.355556-59.733333 39.822222-73.955556zM981.333333 839.111111h-170.666666V867.555556c0 17.066667-11.377778 28.444444-28.444445 28.444444h-455.111111c-17.066667 0-28.444444-11.377778-28.444444-28.444444v-28.444445h-142.222223c-17.066667 0-28.444444-11.377778-28.444444-28.444444v-105.244445c0-17.066667 11.377778-28.444444 28.444444-28.444444s28.444444 11.377778 28.444445 28.444444V782.222222h113.777778v-28.444444c0-17.066667 11.377778-28.444444 28.444444-28.444445h455.111111c17.066667 0 28.444444 11.377778 28.444445 28.444445V782.222222h142.222222v-853.333333H796.444444c-17.066667 0-28.444444-11.377778-28.444444-28.444445s11.377778-28.444444 28.444444-28.444444h184.888889c17.066667 0 28.444444 11.377778 28.444445 28.444444V810.666667c0 17.066667-11.377778 28.444444-28.444445 28.444444z m-227.555555-56.888889h-398.222222V839.111111h398.222222v-56.888889zM839.111111 554.666667c17.066667 0 28.444444 11.377778 28.444445 28.444444s-11.377778 28.444444-28.444445 28.444445h-369.777778c-17.066667 0-28.444444-11.377778-28.444444-28.444445s11.377778-28.444444 28.444444-28.444444h369.777778zM327.111111 440.888889c0-17.066667 11.377778-28.444444 28.444445-28.444445h483.555555c17.066667 0 28.444444 11.377778 28.444445 28.444445s-11.377778 28.444444-28.444445 28.444444h-483.555555c-17.066667 0-28.444444-11.377778-28.444445-28.444444zM355.555556 270.222222h341.333333c17.066667 0 28.444444 11.377778 28.444444 28.444445s-11.377778 28.444444-28.444444 28.444444h-341.333333c-17.066667 0-28.444444-11.377778-28.444445-28.444444s11.377778-28.444444 28.444445-28.444445z"  horiz-adv-x="1024" />


    <glyph glyph-name="shipinfenbubpx" unicode="&#59079;" d="M0 896v-1024h1024V896H0z m955.733333-314.026667h-245.76V827.733333H955.733333v-245.76z m-245.76-68.266666H955.733333v-262.826667h-245.76v262.826667z m-68.266666 314.026666v-573.44H68.266667V827.733333h573.44z m0-641.706666V-59.733333h-262.826667v245.76h262.826667zM68.266667 186.026667h245.76V-59.733333H68.266667v245.76zM709.973333-59.733333v245.76H955.733333V-59.733333h-245.76z"  horiz-adv-x="1024" />


    <glyph glyph-name="pingmutoushepx" unicode="&#59080;" d="M981.333333 298.666667c-25.6 0-42.666667-17.066667-42.666666-42.666667V-42.666667H85.333333V810.666667h298.666667c25.6 0 42.666667 17.066667 42.666667 42.666666S409.6 896 384 896H0v-1024h1024V256c0 25.6-17.066667 42.666667-42.666667 42.666667zM640 896c-25.6 0-42.666667-17.066667-42.666667-42.666667s17.066667-42.666667 42.666667-42.666666h238.933333L392.533333 332.8c-17.066667-17.066667-17.066667-42.666667 0-59.733333 8.533333-17.066667 25.6-17.066667 34.133334-17.066667s25.6 0 34.133333 8.533333L938.666667 750.933333v-238.933333c0-25.6 17.066667-42.666667 42.666666-42.666667s42.666667 17.066667 42.666667 42.666667V896H640z"  horiz-adv-x="1024" />


    <glyph glyph-name="shipinfenbuapx" unicode="&#59081;" d="M0 896v-1024h1024V896H0z m955.733333-477.866667H546.133333V827.733333h409.6v-409.6zM477.866667 827.733333v-409.6H68.266667V827.733333h409.6zM68.266667 349.866667h409.6v-409.6H68.266667V349.866667z m477.866666-409.6V349.866667h409.6v-409.6H546.133333z"  horiz-adv-x="1024" />


    <glyph glyph-name="shipinfenbucpx" unicode="&#59082;" d="M0 896v-1024h1024V896H0z m955.733333-317.44h-249.173333V827.733333H955.733333v-249.173333z m-566.613333-320.853333v249.173333h249.173333v-249.173333h-249.173333z m249.173333-68.266667V-59.733333h-249.173333v249.173333h249.173333z m-317.44 68.266667H68.266667v249.173333h252.586666v-249.173333z m68.266667 320.853333V827.733333h249.173333v-249.173333h-249.173333z m317.44-68.266667H955.733333v-249.173333h-249.173333v249.173333zM320.853333 827.733333v-249.173333H68.266667V827.733333h252.586666zM68.266667 189.44h252.586666V-59.733333H68.266667v249.173333zM706.56-59.733333v249.173333H955.733333V-59.733333h-249.173333z"  horiz-adv-x="1024" />


    <glyph glyph-name="jietupx" unicode="&#59083;" d="M981.333333 153.6H281.6V853.333333C281.6 878.933333 256 896 230.4 896s-42.666667-17.066667-42.666667-42.666667v-136.533333H42.666667c-25.6-8.533333-42.666667-25.6-42.666667-51.2s17.066667-42.666667 42.666667-42.666667h136.533333v-512c0-25.6 17.066667-42.666667 42.666667-42.666666h512v-136.533334c8.533333-42.666667 34.133333-59.733333 59.733333-59.733333 25.6 0 42.666667 17.066667 42.666667 42.666667V59.733333h136.533333c25.6 0 42.666667 17.066667 42.666667 42.666667 8.533333 25.6-8.533333 51.2-34.133334 51.2zM375.466667 614.4h366.933333v-366.933333c0-25.6 17.066667-42.666667 42.666667-42.666667s42.666667 17.066667 42.666666 42.666667V665.6c0 25.6-17.066667 42.666667-42.666666 42.666667H375.466667c-25.6 0-42.666667-17.066667-42.666667-42.666667s17.066667-51.2 42.666667-51.2z"  horiz-adv-x="1024" />


    <glyph glyph-name="shezhipx" unicode="&#59084;" d="M1018.88 471.04c-5.12 35.84-35.84 56.32-66.56 56.32-35.84-5.12-71.68 20.48-87.04 51.2-20.48 30.72-15.36 71.68 0 102.4 20.48 30.72 15.36 66.56-15.36 87.04-51.2 40.96-102.4 76.8-163.84 97.28-30.72 10.24-66.56-5.12-81.92-35.84-15.36-35.84-51.2-56.32-87.04-56.32s-71.68 20.48-87.04 51.2C414.72 855.04 378.88 870.4 348.16 855.04c-71.68-10.24-128-46.08-174.08-87.04-25.6-20.48-30.72-61.44-15.36-87.04 20.48-30.72 20.48-71.68 0-102.4-15.36-30.72-51.2-51.2-87.04-51.2-30.72 0-61.44-25.6-66.56-56.32C0 445.44 0 414.72 0 384c0-35.84 5.12-71.68 10.24-102.4 5.12-30.72 35.84-51.2 66.56-56.32 35.84 0 66.56-20.48 87.04-51.2 15.36-30.72 20.48-66.56 0-97.28-15.36-30.72-10.24-61.44 15.36-81.92 51.2-40.96 107.52-76.8 168.96-97.28 30.72-10.24 61.44 0 76.8 25.6 20.48 30.72 51.2 46.08 81.92 46.08 35.84 0 66.56-15.36 87.04-46.08 10.24-20.48 35.84-30.72 56.32-30.72 5.12 0 15.36 0 20.48 5.12 61.44 20.48 117.76 51.2 168.96 92.16 25.6 20.48 30.72 56.32 15.36 87.04-15.36 30.72-15.36 66.56 0 97.28 15.36 30.72 51.2 51.2 87.04 51.2 30.72 0 61.44 20.48 66.56 56.32 5.12 35.84 10.24 66.56 10.24 102.4 5.12 30.72 5.12 61.44 0 87.04zM240.64 691.2z m675.84-363.52c-61.44-10.24-117.76-46.08-148.48-97.28-30.72-51.2-35.84-117.76-15.36-168.96-25.6-20.48-56.32-35.84-92.16-51.2-35.84 46.08-92.16 71.68-153.6 71.68s-117.76-25.6-153.6-71.68c-30.72 15.36-61.44 30.72-92.16 51.2 20.48 56.32 15.36 117.76-15.36 168.96S163.84 317.44 102.4 327.68V384v40.96c61.44 10.24 117.76 51.2 148.48 102.4 30.72 56.32 35.84 122.88 10.24 179.2 25.6 20.48 56.32 35.84 87.04 51.2 35.84-51.2 97.28-81.92 163.84-81.92 66.56 0 128 30.72 163.84 81.92 30.72-15.36 61.44-30.72 87.04-51.2-25.6-56.32-20.48-128 10.24-184.32 30.72-51.2 81.92-87.04 148.48-97.28v-40.96c0-20.48 0-35.84-5.12-56.32zM512 583.68c-112.64 0-199.68-92.16-199.68-199.68s92.16-199.68 199.68-199.68 199.68 92.16 199.68 199.68-87.04 199.68-199.68 199.68z m0-296.96c-56.32 0-97.28 46.08-97.28 97.28s40.96 97.28 97.28 97.28 97.28-46.08 97.28-97.28-40.96-97.28-97.28-97.28z"  horiz-adv-x="1024" />


    <glyph glyph-name="luyintingzhipx" unicode="&#59085;" d="M512 896C230.4 896 0 665.6 0 384s230.4-512 512-512 512 230.4 512 512-230.4 512-512 512z m0-938.666667c-238.933333 0-426.666667 187.733333-426.666667 426.666667s187.733333 426.666667 426.666667 426.666667 426.666667-187.733333 426.666667-426.666667-187.733333-426.666667-426.666667-426.666667zM298.666667 597.333333h426.666666v-426.666666h-426.666666z"  horiz-adv-x="1024" />


    <glyph glyph-name="luyin_12px" unicode="&#59086;" d="M512 896C230.4 896 0 665.6 0 384s230.4-512 512-512 512 230.4 512 512-230.4 512-512 512z m0-938.666667c-238.933333 0-426.666667 187.733333-426.666667 426.666667s187.733333 426.666667 426.666667 426.666667 426.666667-187.733333 426.666667-426.666667-187.733333-426.666667-426.666667-426.666667zM512 384m-213.333333 0a213.333333 213.333333 0 1 1 426.666666 0 213.333333 213.333333 0 1 1-426.666666 0Z"  horiz-adv-x="1024" />


    <glyph glyph-name="quanpingpx" unicode="&#59087;" d="M384 315.733333L85.333333 17.066667V204.8c0 25.6-17.066667 42.666667-42.666666 42.666667s-42.666667-17.066667-42.666667-42.666667v-307.2c8.533333-8.533333 8.533333-17.066667 25.6-25.6h307.2c25.6 0 42.666667 17.066667 42.666667 42.666667s-17.066667 42.666667-42.666667 42.666666H145.066667l298.666666 298.666667-59.733333 59.733333zM1024 870.4c-8.533333 8.533333-8.533333 17.066667-25.6 25.6H691.2c-25.6 0-42.666667-17.066667-42.666667-42.666667s17.066667-42.666667 42.666667-42.666666h187.733333L580.266667 512l59.733333-59.733333L938.666667 750.933333v-187.733333c0-25.6 17.066667-42.666667 42.666666-42.666667s42.666667 17.066667 42.666667 42.666667V853.333333 870.4z"  horiz-adv-x="1024" />


    <glyph glyph-name="tingzhipx" unicode="&#59088;" d="M896-128h-768C59.733333-128 0-68.266667 0 0v768C0 836.266667 59.733333 896 128 896h776.533333c59.733333 0 119.466667-59.733333 119.466667-128v-776.533333c0-59.733333-59.733333-119.466667-128-119.466667z"  horiz-adv-x="1024" />


    <glyph glyph-name="dial_up" unicode="&#59089;" d="M113.777778 782.222222m-113.777778 0a113.777778 113.777778 0 1 1 227.555556 0 113.777778 113.777778 0 1 1-227.555556 0ZM512 782.222222m-113.777778 0a113.777778 113.777778 0 1 1 227.555556 0 113.777778 113.777778 0 1 1-227.555556 0ZM910.222222 782.222222m-113.777778 0a113.777778 113.777778 0 1 1 227.555556 0 113.777778 113.777778 0 1 1-227.555556 0ZM113.777778 503.466667m-113.777778 0a113.777778 113.777778 0 1 1 227.555556 0 113.777778 113.777778 0 1 1-227.555556 0ZM512 503.466667m-113.777778 0a113.777778 113.777778 0 1 1 227.555556 0 113.777778 113.777778 0 1 1-227.555556 0ZM910.222222 503.466667m-113.777778 0a113.777778 113.777778 0 1 1 227.555556 0 113.777778 113.777778 0 1 1-227.555556 0ZM113.777778 224.711111m-113.777778 0a113.777778 113.777778 0 1 1 227.555556 0 113.777778 113.777778 0 1 1-227.555556 0ZM512 224.711111m-113.777778 0a113.777778 113.777778 0 1 1 227.555556 0 113.777778 113.777778 0 1 1-227.555556 0ZM910.222222 224.711111m-113.777778 0a113.777778 113.777778 0 1 1 227.555556 0 113.777778 113.777778 0 1 1-227.555556 0ZM512-128l153.6 199.111111H358.4z"  horiz-adv-x="1024" />


    <glyph glyph-name="shengyinpx" unicode="&#59090;" d="M622.933333 887.466667C614.4 896 597.333333 896 580.266667 887.466667L230.4 648.533333H42.666667c-25.6 0-42.666667-25.6-42.666667-42.666666v-435.2c0-25.6 17.066667-42.666667 42.666667-42.666667h187.733333l349.866667-238.933333c8.533333-17.066667 17.066667-17.066667 25.6-17.066667 8.533333 0 17.066667 0 17.066666 8.533333 17.066667 8.533333 25.6 25.6 25.6 34.133334V853.333333c0 17.066667-8.533333 34.133333-25.6 34.133334zM85.333333 563.2h119.466667V213.333333H85.333333V563.2z m477.866667-563.2L290.133333 187.733333V580.266667l273.066667 187.733333v-768zM870.4 384c0 110.933333-51.2 204.8-145.066667 273.066667-17.066667 8.533333-42.666667 8.533333-59.733333-17.066667-17.066667-17.066667-8.533333-42.666667 8.533333-51.2 68.266667-51.2 110.933333-128 110.933334-204.8s-42.666667-153.6-110.933334-204.8c-17.066667-8.533333-25.6-34.133333-8.533333-51.2 8.533333-8.533333 25.6-17.066667 34.133333-17.066667 8.533333 0 17.066667 0 25.6 8.533334 85.333333 59.733333 145.066667 153.6 145.066667 264.533333zM819.2 776.533333c-17.066667 17.066667-51.2 8.533333-59.733333-8.533333-17.066667-17.066667-8.533333-42.666667 8.533333-59.733333 102.4-76.8 170.666667-196.266667 170.666667-324.266667s-59.733333-247.466667-170.666667-324.266667c-17.066667-17.066667-25.6-42.666667-8.533333-59.733333 8.533333-8.533333 25.6-17.066667 34.133333-17.066667 8.533333 0 17.066667 0 25.6 8.533334C947.2 76.8 1024 230.4 1024 384s-76.8 307.2-204.8 392.533333z"  horiz-adv-x="1024" />


    <glyph glyph-name="maikefengjinzhipx" unicode="&#59091;" d="M716.8 440.32v25.6l-51.2-51.2c-10.24-76.8-71.68-138.24-143.36-143.36l-46.08-46.08c10.24-5.12 25.6-5.12 40.96-5.12 107.52-5.12 199.68 97.28 199.68 220.16zM819.2 501.76c-15.36 0-25.6-10.24-25.6-25.6v-66.56c0-148.48-128-266.24-281.6-266.24-35.84 0-71.68 5.12-102.4 20.48l-40.96-40.96c35.84-15.36 71.68-25.6 112.64-30.72v-153.6H322.56c-15.36 0-25.6-10.24-25.6-25.6s10.24-25.6 25.6-25.6h378.88c15.36 0 25.6 10.24 25.6 25.6s-10.24 25.6-25.6 25.6h-163.84v153.6c174.08 10.24 307.2 148.48 307.2 317.44V476.16c0 10.24-10.24 25.6-25.6 25.6zM993.28 865.28c-10.24 10.24-25.6 10.24-35.84 0L716.8 624.64v35.84c0 122.88-92.16 220.16-204.8 220.16S307.2 783.36 307.2 660.48V435.2c0-61.44 25.6-117.76 66.56-158.72l-61.44-61.44c-51.2 46.08-81.92 112.64-81.92 189.44V476.16c0 10.24-10.24 25.6-25.6 25.6s-25.6-15.36-25.6-25.6v-66.56c0-87.04 35.84-163.84 97.28-225.28L30.72-61.44c-10.24-10.24-10.24-25.6 0-35.84 5.12-5.12 10.24-5.12 20.48-5.12s15.36 0 20.48 5.12l921.6 921.6c5.12 10.24 5.12 30.72 0 40.96zM358.4 440.32V660.48c0 92.16 66.56 168.96 153.6 168.96s153.6-76.8 153.6-168.96v-87.04l-256-256c-30.72 30.72-51.2 71.68-51.2 122.88z"  horiz-adv-x="1024" />


    <glyph glyph-name="dianshiqiang" unicode="&#59092;" d="M0 832h294.4v-243.2H0zM364.8 832h294.4v-243.2H364.8zM729.6 832H1024v-243.2h-294.4zM0 505.6h294.4v-243.2H0zM364.8 505.6h294.4v-243.2H364.8zM729.6 505.6H1024v-243.2h-294.4zM0 179.2h294.4V-64H0zM364.8 179.2h294.4V-64H364.8zM729.6 179.2H1024V-64h-294.4z"  horiz-adv-x="1024" />


    <glyph glyph-name="maikefeng_20px" unicode="&#59093;" d="M512 215.04c112.64 0 204.8 97.28 204.8 220.16V660.48c0 122.88-92.16 220.16-204.8 220.16S307.2 783.36 307.2 660.48V435.2c0-117.76 92.16-220.16 204.8-220.16zM358.4 660.48c0 92.16 66.56 168.96 153.6 168.96s153.6-76.8 153.6-168.96V435.2c0-92.16-66.56-168.96-153.6-168.96S358.4 343.04 358.4 435.2V660.48zM819.2 501.76c-15.36 0-25.6-10.24-25.6-25.6v-66.56c0-148.48-128-266.24-281.6-266.24s-281.6 117.76-281.6 266.24V476.16c0 10.24-10.24 25.6-25.6 25.6s-25.6-15.36-25.6-25.6v-66.56c0-168.96 133.12-307.2 307.2-317.44v-153.6H322.56c-15.36 0-25.6-10.24-25.6-25.6s10.24-25.6 25.6-25.6h378.88c15.36 0 25.6 10.24 25.6 25.6s-10.24 25.6-25.6 25.6h-163.84v153.6c174.08 10.24 307.2 148.48 307.2 317.44V476.16c0 10.24-10.24 25.6-25.6 25.6z"  horiz-adv-x="1024" />


    <glyph glyph-name="yuyin" unicode="&#59094;" d="M645.12-112.64c-15.36 0-25.6 5.12-35.84 15.36-20.48 20.48-20.48 51.2 0 71.68 112.64 107.52 174.08 250.88 174.08 409.6 0 153.6-61.44 302.08-174.08 409.6-20.48 20.48-20.48 51.2 0 71.68 20.48 20.48 51.2 20.48 71.68 0 133.12-128 204.8-296.96 204.8-481.28 0-184.32-71.68-353.28-204.8-481.28-10.24-10.24-25.6-15.36-35.84-15.36zM440.32 92.16c-15.36 0-25.6 5.12-35.84 15.36-20.48 20.48-20.48 51.2 0 71.68 56.32 56.32 87.04 128 87.04 204.8S460.8 532.48 404.48 588.8c-20.48 20.48-20.48 51.2 0 71.68 20.48 20.48 51.2 20.48 71.68 0C552.96 588.8 593.92 486.4 593.92 384c0-102.4-40.96-204.8-117.76-276.48-10.24-10.24-20.48-15.36-35.84-15.36zM143.120302 352.652513a102.4 102.4 0 1 1 195.107245 62.25916 102.4 102.4 0 1 1-195.107245-62.25916Z"  horiz-adv-x="1024" />


    <glyph glyph-name="qingchu" unicode="&#59095;" d="M911.36 691.2H317.44c-20.48 0-40.96-15.36-56.32-25.6l-204.8-204.8c-46.08-40.96-46.08-112.64 0-158.72l204.8-204.8c15.36-5.12 30.72-20.48 56.32-20.48h593.92c46.08 0 87.04 40.96 87.04 97.28V593.92c0 56.32-40.96 97.28-87.04 97.28z m-138.24-414.72c10.24-10.24 10.24-25.6 0-35.84-5.12-10.24-15.36-10.24-20.48-10.24s-15.36 0-20.48 5.12l-107.52 107.52-107.52-107.52c-5.12-5.12-15.36-5.12-20.48-5.12s-15.36 0-20.48 5.12c-10.24 10.24-10.24 25.6 0 35.84l107.52 107.52-107.52 112.64c-10.24 10.24-10.24 25.6 0 35.84s25.6 10.24 35.84 0l107.52-107.52 107.52 107.52c10.24 10.24 25.6 10.24 35.84 0s10.24-25.6 0-35.84l-102.4-107.52 112.64-107.52z"  horiz-adv-x="1024" />


    <glyph glyph-name="tingzhiluzhipx" unicode="&#59096;" d="M512 896C230.4 896 0 665.6 0 384s230.4-512 512-512 512 230.4 512 512S793.6 896 512 896z m0-972.8c-256 0-460.8 204.8-460.8 460.8s204.8 460.8 460.8 460.8 460.8-204.8 460.8-460.8-204.8-460.8-460.8-460.8zM296.96 599.04h424.96v-424.96H296.96z"  horiz-adv-x="1024" />


    <glyph glyph-name="bofang_20px" unicode="&#59097;" d="M512 896C230.4 896 0 665.6 0 384s230.4-512 512-512 512 230.4 512 512S793.6 896 512 896z m0-972.8c-256 0-460.8 204.8-460.8 460.8s204.8 460.8 460.8 460.8 460.8-204.8 460.8-460.8-204.8-460.8-460.8-460.8zM368.64 153.6L768 384 368.64 614.4z"  horiz-adv-x="1024" />


    <glyph glyph-name="guaduanshixin" unicode="&#59098;" d="M952.49852 160.8104c-70.197349 70.197349-134.013121 82.960503-159.539429 63.815772-12.763154-6.381577-63.815772-63.815772-63.815772-63.815772-12.763154-12.763154-31.907886-19.144732-44.67104-19.144731 0 0-70.197349 0-204.21047 114.868389l-127.631544-127.631543c312.697282-293.55255 529.670906-255.263087 529.670906-255.263088 12.763154 0 44.67104 12.763154 51.052618 19.144732 0 0 51.052617 44.67104 82.960503 95.723657 31.907886 57.434195-31.907886 134.013121-63.815772 172.302584zM837.630131 760.678656c-12.763154 12.763154-31.907886 12.763154-44.67104 0L384.538151 352.257716c-114.868389 127.631544-114.868389 204.21047-114.868389 204.21047 0 12.763154 6.381577 31.907886 19.144731 44.67104l63.815772 63.815772c25.526309 31.907886-12.763154 102.105235-63.815772 159.53943C256.906607 862.783891 231.380299 881.928622 180.327681 894.691777 116.511909 907.454931 8.025097 824.494428 1.64352 747.915501c0 0-38.289463-210.592047 255.263087-529.670906L8.025097-30.636915c-12.763154-12.763154-12.763154-31.907886 0-44.67104 6.381577-6.381577 12.763154-6.381577 25.526309-6.381578s19.144732 0 25.526309 6.381578L837.630131 709.626038c12.763154 12.763154 12.763154 38.289463 0 51.052618z"  horiz-adv-x="1027" />


    <glyph glyph-name="yonghuM" unicode="&#59099;" d="M691.2 401.066667c59.733333 51.2 102.4 128 102.4 213.333333C793.6 768 665.6 896 512 896S230.4 768 230.4 614.4c0-85.333333 42.666667-162.133333 102.4-213.333333C136.533333 324.266667 0 136.533333 0-76.8c0-25.6 25.6-51.2 51.2-51.2s51.2 25.6 51.2 51.2c0 230.4 187.733333 418.133333 418.133333 418.133333S938.666667 153.6 938.666667-76.8c0-25.6 25.6-51.2 51.2-51.2s51.2 25.6 51.2 51.2c-17.066667 213.333333-153.6 401.066667-349.866667 477.866667zM324.266667 614.4c0 102.4 85.333333 187.733333 187.733333 187.733333s187.733333-85.333333 187.733333-187.733333-85.333333-179.2-187.733333-179.2-187.733333 76.8-187.733333 179.2z"  horiz-adv-x="1041" />


    <glyph glyph-name="bohaoshixin" unicode="&#59100;" d="M2.606642 747.960431s-44.657487-229.667075 293.463485-567.788046l6.379641-6.379641 6.379641-6.379641c338.120971-338.120971 567.788046-293.463485 567.788046-293.463485 12.759282 0 44.657487 12.759282 51.037128 19.138923 0 0 51.037128 44.657487 82.935333 95.694615s-25.518564 133.97246-63.79641 165.870665c-70.176051 70.176051-133.97246 82.935333-159.491024 63.79641-12.759282-6.379641-63.79641-63.79641-63.79641-63.79641-12.759282-12.759282-31.898205-19.138923-44.657487-19.138923 0 0-89.314974 0-255.185639 159.491024-159.491024 165.870665-159.491024 255.185639-159.491024 255.185639 0 12.759282 6.379641 31.898205 19.138923 44.657487l63.79641 63.79641c25.518564 31.898205-12.759282 102.074256-63.79641 159.491024C257.792281 862.793969 232.273717 881.932892 181.23659 894.692174 117.44018 907.451456 8.986283 824.516123 2.606642 747.960431z"  horiz-adv-x="1024" />


    <glyph glyph-name="luzhi_20px" unicode="&#59101;" d="M512 896C230.4 896 0 665.6 0 384s230.4-512 512-512 512 230.4 512 512S793.6 896 512 896z m0-972.8c-256 0-460.8 204.8-460.8 460.8s204.8 460.8 460.8 460.8 460.8-204.8 460.8-460.8-204.8-460.8-460.8-460.8zM512 384m-215.04 0a215.04 215.04 0 1 1 430.08 0 215.04 215.04 0 1 1-430.08 0Z"  horiz-adv-x="1024" />


    <glyph glyph-name="queren-chenggong" unicode="&#59102;" d="M512 896C230.4 896 0 665.6 0 384s230.4-512 512-512 512 230.4 512 512-230.4 512-512 512z m0-960c-249.6 0-448 198.4-448 448s198.4 448 448 448 448-198.4 448-448-198.4-448-448-448zM768 608l-320-358.4-198.4 172.8c-12.8 12.8-32 12.8-44.8 0-12.8-12.8-6.4-38.4 6.4-44.8l249.6-217.6 358.4 409.6c12.8 12.8 12.8 32 0 44.8-19.2 6.4-38.4 6.4-51.2-6.4z"  horiz-adv-x="1024" />


    <glyph glyph-name="tupian" unicode="&#59103;" d="M928 832h-832C44.8 832 0 787.2 0 736v-704c0-51.2 44.8-96 96-96h832c51.2 0 96 44.8 96 96v704c0 51.2-44.8 96-96 96z m-832-64h832c19.2 0 32-12.8 32-32v-563.2l-179.2 179.2c-25.6 25.6-64 25.6-89.6 0L608 268.8 339.2 537.6c-25.6 25.6-64 25.6-89.6 0L64 352v384c0 19.2 12.8 32 32 32z m832-768h-832c-19.2 0-32 12.8-32 32V262.4l230.4 230.4 275.2-275.2c25.6-25.6 64-25.6 83.2 0l83.2 83.2 224-224v-51.2c0-12.8-12.8-25.6-32-25.6zM768 448c70.4 0 128 57.6 128 128s-57.6 128-128 128-128-57.6-128-128 57.6-128 128-128z m0 192c38.4 0 64-25.6 64-64s-25.6-64-64-64-64 25.6-64 64 25.6 64 64 64z"  horiz-adv-x="1024" />


    <glyph glyph-name="qipao" unicode="&#59104;" d="M960 435.2c0 256-198.4 460.8-448 460.8S64 691.2 64 435.2c0-160 83.2-307.2 204.8-384L512-128l243.2 179.2c6.4 6.4 19.2 12.8 25.6 19.2l6.4 6.4C896 166.4 960 294.4 960 435.2z"  horiz-adv-x="1024" />


    <glyph glyph-name="paixu-jiang" unicode="&#59105;" d="M755.2-96c12.8-6.4 25.6 0 38.4 12.8l160 224c6.4 6.4 6.4 19.2 6.4 25.6v6.4c-6.4 12.8-19.2 19.2-25.6 19.2h-128V800c-6.4 19.2-19.2 32-38.4 32s-32-12.8-32-32V-64c0-12.8 6.4-25.6 19.2-32zM128 704h512c19.2 0 32 12.8 32 32S659.2 768 640 768H128c-19.2 0-32-12.8-32-32s12.8-32 32-32zM640 524.8H256c-19.2 0-32-12.8-32-32s12.8-32 32-32h384c19.2 0 32 12.8 32 32s-12.8 32-32 32zM640 275.2H384c-19.2 0-32-12.8-32-32s12.8-32 32-32h256c19.2 0 32 12.8 32 32s-12.8 32-32 32zM640 32H512c-19.2 0-32-12.8-32-32s12.8-32 32-32h128c19.2 0 32 12.8 32 32s-12.8 32-32 32z"  horiz-adv-x="1024" />


    <glyph glyph-name="suoding" unicode="&#59106;" d="M832 460.8V576c0 179.2-140.8 320-320 320S192 755.2 192 576v-115.2c-51.2 0-96-44.8-96-96v-390.4c0-51.2 44.8-96 96-96h640c51.2 0 96 44.8 96 96V371.2c0 51.2-44.8 89.6-96 89.6zM256 576c0 140.8 115.2 256 256 256s256-115.2 256-256v-115.2H256V576z m608-595.2c0-19.2-12.8-32-32-32H192c-19.2 0-32 12.8-32 32V371.2c0 12.8 12.8 25.6 32 25.6h640c19.2 0 32-12.8 32-32v-384z"  horiz-adv-x="1024" />


    <glyph glyph-name="zhuxihuaquan" unicode="&#59107;" d="M793.6 499.2c-12.8 12.8-25.6 19.2-44.8 19.2h-19.2l-19.2 89.6c-6.4 32-38.4 64-70.4 64l-64 12.8c25.6 19.2 38.4 51.2 38.4 89.6C614.4 838.4 556.8 896 492.8 896c-64 0-121.6-57.6-121.6-121.6 0-38.4 19.2-70.4 38.4-89.6l-64-6.4c-25.6-12.8-57.6-38.4-64-70.4l-19.2-89.6h-25.6c-19.2 0-32-6.4-44.8-19.2s-12.8-32-12.8-44.8l6.4-83.2c0-32 25.6-64 57.6-70.4v-6.4l51.2-396.8c0-12.8 12.8-25.6 32-25.6h332.8c19.2 0 32 12.8 32 25.6l51.2 396.8v6.4c32 12.8 51.2 38.4 57.6 70.4l6.4 83.2c6.4 12.8 0 32-12.8 44.8zM627.2 608c6.4 0 19.2-6.4 19.2-19.2l12.8-51.2H537.6s0 6.4 6.4 6.4L576 620.8l51.2-12.8zM492.8 832c32 0 57.6-25.6 57.6-57.6s-25.6-57.6-57.6-57.6-57.6 25.6-57.6 57.6 25.6 57.6 57.6 57.6zM345.6 595.2c0 6.4 12.8 19.2 19.2 19.2l57.6 6.4 25.6-70.4v-6.4H332.8l12.8 51.2z m288-665.6H352l-38.4 339.2h364.8l-44.8-339.2z m102.4 448c0-12.8-12.8-19.2-19.2-19.2h-448c-12.8 0-19.2 6.4-19.2 19.2l-6.4 76.8h499.2l-6.4-76.8z"  horiz-adv-x="1024" />


    <glyph glyph-name="jiesuo" unicode="&#59108;" d="M832 460.8H256V576c0 140.8 115.2 256 256 256s256-115.2 256-256c0-19.2 12.8-32 32-32s32 12.8 32 32c0 179.2-140.8 320-320 320S192 755.2 192 576v-115.2c-51.2 0-96-44.8-96-96v-390.4c0-51.2 44.8-96 96-96h640c51.2 0 96 44.8 96 96V371.2c0 51.2-44.8 89.6-96 89.6z m32-480c0-19.2-12.8-32-32-32H192c-19.2 0-32 12.8-32 32V371.2c0 12.8 12.8 25.6 32 25.6h640c19.2 0 32-12.8 32-32v-384z"  horiz-adv-x="1024" />


    </font>
</defs>
</svg>
